<?xml version="1.0" encoding="UTF-8"?>
<svg id="Layer_1" xmlns="http://www.w3.org/2000/svg" version="1.1" viewBox="0 0 800 800">
  <!-- Generator: Adobe Illustrator 29.6.1, SVG Export Plug-In . SVG Version: 2.1.1 Build 9)  -->
  <defs>
    <style>
      .st0 {
        fill: #cee8fa;
      }

      .st1 {
        fill: #fff;
      }

      .st2 {
        fill: #2d527c;
      }
    </style>
  </defs>
  <g>
    <path class="st1" d="M232.8,534l-38.9,60.4c-2.9,11.7-12.8,53-12.8,53l64.7-23.6s70.7-6.3,85.5,50.9c.2.8-.5,32.1,3,32.1,44.2,0,244.1-2.2,244.1-2.2,0,0,41.1-109.2,158.2-44.2,2.1,1.2-7.6-41.7-8.7-45.5-6.2-22.6-45.9-52-45.9-52l-61.1-23.6-72.4-5.3H232.8Z"/>
    <path class="st2" d="M189.6,731.1h-54c-12,0-21.7-9.7-21.7-21.7s9.7-21.7,21.7-21.7h54c12,0,21.7,9.7,21.7,21.7s-9.7,21.7-21.7,21.7Z"/>
    <path class="st2" d="M778.3,731.1h-57.2c-12,0-21.7-9.7-21.7-21.7s9.7-21.7,21.7-21.7h57.2c12,0,21.7,9.7,21.7,21.7s-9.7,21.7-21.7,21.7Z"/>
    <path class="st2" d="M754.4,728.5h-33.3c-12,0-21.7-9.7-21.7-21.7s9.7-21.7,21.7-21.7h11.6v-9.6c0-44.4-18.9-80.2-54.7-103.6-26.1-17-59.2-26.1-95.7-26.1h-316.8c-28.9,0-54.2,20.5-60.2,48.9l-19,90.4h6.5c12,0,21.7,9.7,21.7,21.7s-9.7,21.7-21.7,21.7h-33.3c-6.5,0-12.7-3-16.9-8-4.1-5.1-5.7-11.8-4.4-18.2l24.5-116.6c10.2-48.3,53.4-83.4,102.7-83.4h316.8c45,0,86.3,11.5,119.5,33.1,48,31.4,74.4,81.1,74.4,140v31.3c0,12-9.7,21.7-21.7,21.7Z"/>
    <path class="st2" d="M578.2,728.5h-236.9c-17.1,0-31-9.7-31-21.7s13.9-21.7,31-21.7h236.9c17.1,0,31,9.7,31,21.7s-13.9,21.7-31,21.7Z"/>
  </g>
  <path class="st0" d="M582.2,524.1c32.9,0,63.6,6.7,89.7,19.5l-30.5-132c-8.5-32.2-37.6-54.6-70.9-54.6h-193.7c-29.7,0-56.4,17.9-67.7,45.3l-45.4,121.9h318.4Z"/>
  <g>
    <path class="st2" d="M671.9,565.3c-3.2,0-6.5-.7-9.5-2.2-23.2-11.3-50.9-17.3-80.2-17.3h-318.4c-7.1,0-13.8-3.5-17.9-9.3-4.1-5.8-5-13.3-2.5-20l45.4-121.9c0-.2.2-.5.3-.7,14.8-35.7,49.2-58.7,87.8-58.7h193.7c43.1,0,80.9,29.1,91.9,70.8,0,.2.1.4.2.7l30.5,132c1.9,8.2-1.1,16.7-7.7,21.9-3.9,3.1-8.7,4.7-13.5,4.7ZM295.1,502.3h287.1c20.6,0,40.7,2.5,59.6,7.3l-21.4-92.8c-6.1-22.5-26.5-38.1-49.8-38.1h-193.7c-20.8,0-39.4,12.4-47.5,31.5l-34.4,92.2Z"/>
    <path class="st2" d="M508.6,637.2c-12,0-21.7-9.7-21.7-21.7v-250.2c0-12,9.7-21.7,21.7-21.7s21.7,9.7,21.7,21.7v250.2c0,12-9.7,21.7-21.7,21.7Z"/>
  </g>
  <circle class="st0" cx="660.1" cy="700.2" r="64.4"/>
  <path class="st2" d="M660.1,786.3c-47.5,0-86.1-38.6-86.1-86.1s38.6-86.1,86.1-86.1,86.1,38.6,86.1,86.1-38.6,86.1-86.1,86.1ZM660.1,657.6c-23.5,0-42.6,19.1-42.6,42.6s19.1,42.6,42.6,42.6,42.6-19.1,42.6-42.6-19.1-42.6-42.6-42.6Z"/>
  <circle class="st0" cx="252.7" cy="700.2" r="64.4"/>
  <g>
    <path class="st2" d="M252.7,786.3c-47.5,0-86.1-38.6-86.1-86.1s38.6-86.1,86.1-86.1,86.1,38.6,86.1,86.1c0,47.5-38.6,86.1-86.1,86.1ZM252.7,657.6c-23.5,0-42.6,19.1-42.6,42.6s19.1,42.6,42.6,42.6,42.6-19.1,42.6-42.6-19.1-42.6-42.6-42.6Z"/>
    <path class="st2" d="M295.6,311.8H21.7c-12,0-21.7-9.7-21.7-21.7V35.4C0,23.4,9.7,13.7,21.7,13.7h273.9c12,0,21.7,9.7,21.7,21.7v254.6c0,12-9.7,21.7-21.7,21.7ZM43.5,268.3h230.4V57.2H43.5v211.1Z"/>
    <path class="st2" d="M161.5,88h-40.5c-8.3,0-14.6,5.4-14.6,12.5v124.3c0,7.4,7.6,12.6,18.5,12.6s18.5-5.2,18.5-12.6v-39h16.1c32.6,0,51.4-17.7,51.4-48.6v-1c0-31.1-17.5-48.2-49.4-48.2ZM159.5,155.8h-16.1v-34.7h16.1c9.6,0,14.3,5.3,14.3,16.3v2.1c0,11-4.7,16.3-14.3,16.3Z"/>
    <path class="st2" d="M158.7,494.6c-12,0-21.7-9.7-21.7-21.7v-180c0-12,9.7-21.7,21.7-21.7s21.7,9.7,21.7,21.7v180c0,12-9.7,21.7-21.7,21.7Z"/>
  </g>
</svg>