<?xml version="1.0" encoding="UTF-8"?><svg id="b" xmlns="http://www.w3.org/2000/svg" viewBox="0 0 686.11 451.15"><g id="c"><path d="M75.71,395.95H21.74c-12,0-21.74-9.73-21.74-21.74s9.73-21.74,21.74-21.74h53.97c12,0,21.74,9.73,21.74,21.74s-9.73,21.74-21.74,21.74Z" style="fill:#2d527c;"/><path d="M664.38,395.95h-57.18c-12,0-21.74-9.73-21.74-21.74s9.73-21.74,21.74-21.74h57.18c12,0,21.74,9.73,21.74,21.74s-9.73,21.74-21.74,21.74Z" style="fill:#2d527c;"/><path d="M640.5,393.33h-33.31c-12,0-21.74-9.73-21.74-21.74s9.73-21.74,21.74-21.74h11.57v-9.56c0-44.37-18.92-80.2-54.72-103.61-26.07-17.05-59.17-26.06-95.72-26.06H151.58c-28.93,0-54.24,20.55-60.19,48.86l-18.99,90.37h6.53c12,0,21.74,9.73,21.74,21.74s-9.73,21.74-21.74,21.74h-33.31c-6.55,0-12.75-2.95-16.88-8.04-4.12-5.09-5.74-11.76-4.39-18.17l24.5-116.58c10.16-48.32,53.36-83.39,102.74-83.39h316.75c45.02,0,86.35,11.46,119.51,33.15,47.98,31.37,74.4,81.09,74.4,139.99v31.3c0,12-9.73,21.73-21.74,21.73Z" style="fill:#2d527c;"/><path d="M394.76,393.33h-165.86c-12,0-21.74-9.73-21.74-21.74s9.73-21.74,21.74-21.74h165.86c12,0,21.74,9.73,21.74,21.74s-9.73,21.74-21.74,21.74Z" style="fill:#2d527c;"/><path d="M468.33,188.9c32.88,0,63.6,6.74,89.73,19.49l-30.46-132.02c-8.48-32.19-37.59-54.63-70.89-54.63h-193.66c-29.65,0-56.39,17.87-67.73,45.27l-45.43,121.9h318.44Z" style="fill:#cee8fa;"/><path d="M558.06,230.12c-3.24,0-6.5-.72-9.53-2.2-23.19-11.31-50.93-17.29-80.2-17.29H149.9c-7.12,0-13.79-3.49-17.85-9.34-4.06-5.85-5-13.32-2.51-19.99l45.43-121.9c.09-.24.18-.48.28-.72C190,23.03,224.47,0,263.06,0h193.66c43.13,0,80.92,29.12,91.9,70.83.06.22.11.43.16.65l30.46,132.02c1.88,8.16-1.09,16.68-7.65,21.9-3.92,3.12-8.71,4.72-13.53,4.72ZM181.2,167.16h287.14c20.6,0,40.7,2.48,59.59,7.28l-21.42-92.83c-6.06-22.47-26.49-38.13-49.79-38.13h-193.66c-20.82,0-39.43,12.36-47.51,31.52l-34.35,92.17Z" style="fill:#2d527c;"/><path d="M394.76,301.98c-12,0-21.74-9.73-21.74-21.74V30.05c0-12,9.73-21.74,21.74-21.74s21.74,9.73,21.74,21.74v250.2c0,12-9.73,21.73-21.74,21.73Z" style="fill:#2d527c;"/><circle cx="546.26" cy="365.03" r="64.38" style="fill:#cee8fa;"/><path d="M546.26,451.15c-47.49,0-86.12-38.63-86.12-86.12s38.63-86.12,86.12-86.12,86.12,38.63,86.12,86.12-38.63,86.12-86.12,86.12ZM546.26,322.38c-23.52,0-42.65,19.13-42.65,42.65s19.13,42.65,42.65,42.65,42.65-19.13,42.65-42.65-19.13-42.65-42.65-42.65Z" style="fill:#2d527c;"/><circle cx="138.83" cy="365.03" r="64.38" style="fill:#cee8fa;"/><path d="M138.84,451.15c-47.49,0-86.12-38.63-86.12-86.12s38.63-86.12,86.12-86.12,86.12,38.63,86.12,86.12c0,47.48-38.63,86.12-86.12,86.12ZM138.84,322.38c-23.52,0-42.65,19.13-42.65,42.65s19.13,42.65,42.65,42.65,42.65-19.13,42.65-42.65-19.13-42.65-42.65-42.65Z" style="fill:#2d527c;"/></g></svg>