<?xml version="1.0" encoding="UTF-8"?>
<svg id="b" xmlns="http://www.w3.org/2000/svg" version="1.1" viewBox="0 0 686.1 451.1">
  <!-- Generator: Adobe Illustrator 29.6.1, SVG Export Plug-In . SVG Version: 2.1.1 Build 9)  -->
  <defs>
    <style>
      .st0 {
        fill: #cee8fa;
      }

      .st1 {
        fill: #fff;
      }

      .st2 {
        fill: #2d527c;
      }
    </style>
  </defs>
  <g id="c">
    <path class="st1" d="M117.9,198.6l-38.9,60.4c-2.9,11.7-12.8,53-12.8,53l64.7-23.6s70.7-6.3,85.5,50.9c.2.8-.5,32.1,3,32.1,44.2,0,244.1-2.2,244.1-2.2,0,0,41.1-109.2,158.2-44.2,2.1,1.2-7.6-41.7-8.7-45.5-6.2-22.6-45.9-52-45.9-52l-61.1-23.6-72.4-5.3H117.9Z"/>
    <path class="st2" d="M75.7,396H21.7c-12,0-21.7-9.7-21.7-21.7s9.7-21.7,21.7-21.7h54c12,0,21.7,9.7,21.7,21.7s-9.7,21.7-21.7,21.7Z"/>
    <path class="st2" d="M664.4,396h-57.2c-12,0-21.7-9.7-21.7-21.7s9.7-21.7,21.7-21.7h57.2c12,0,21.7,9.7,21.7,21.7s-9.7,21.7-21.7,21.7Z"/>
    <path class="st2" d="M640.5,393.3h-33.3c-12,0-21.7-9.7-21.7-21.7s9.7-21.7,21.7-21.7h11.6v-9.6c0-44.4-18.9-80.2-54.7-103.6-26.1-17.1-59.2-26.1-95.7-26.1H151.6c-28.9,0-54.2,20.6-60.2,48.9l-19,90.4h6.5c12,0,21.7,9.7,21.7,21.7s-9.7,21.7-21.7,21.7h-33.3c-6.5,0-12.8-3-16.9-8-4.1-5.1-5.7-11.8-4.4-18.2l24.5-116.6c10.2-48.3,53.4-83.4,102.7-83.4h316.8c45,0,86.4,11.5,119.5,33.1,48,31.4,74.4,81.1,74.4,140v31.3c0,12-9.7,21.7-21.7,21.7h0Z"/>
    <path class="st2" d="M467.2,393.3h-242.4c-17.5,0-31.8-9.7-31.8-21.7s14.2-21.7,31.8-21.7h242.4c17.5,0,31.8,9.7,31.8,21.7s-14.2,21.7-31.8,21.7Z"/>
    <path class="st0" d="M468.3,188.9c32.9,0,63.6,6.7,89.7,19.5l-30.5-132c-8.5-32.2-37.6-54.6-70.9-54.6h-193.7c-29.6,0-56.4,17.9-67.7,45.3l-45.4,121.9h318.4Z"/>
    <path class="st2" d="M558.1,230.1c-3.2,0-6.5-.7-9.5-2.2-23.2-11.3-50.9-17.3-80.2-17.3H149.9c-7.1,0-13.8-3.5-17.9-9.3-4.1-5.9-5-13.3-2.5-20l45.4-121.9c0-.2.2-.5.3-.7C190,23,224.5,0,263.1,0h193.7c43.1,0,80.9,29.1,91.9,70.8,0,.2.1.4.2.7l30.5,132c1.9,8.2-1.1,16.7-7.7,21.9-3.9,3.1-8.7,4.7-13.5,4.7h0ZM181.2,167.2h287.1c20.6,0,40.7,2.5,59.6,7.3l-21.4-92.8c-6.1-22.5-26.5-38.1-49.8-38.1h-193.7c-20.8,0-39.4,12.4-47.5,31.5l-34.3,92.2h0Z"/>
    <path class="st2" d="M394.8,302c-12,0-21.7-9.7-21.7-21.7V30c0-12,9.7-21.7,21.7-21.7s21.7,9.7,21.7,21.7v250.2c0,12-9.7,21.7-21.7,21.7Z"/>
    <circle class="st0" cx="546.3" cy="365" r="64.4"/>
    <path class="st2" d="M546.3,451.1c-47.5,0-86.1-38.6-86.1-86.1s38.6-86.1,86.1-86.1,86.1,38.6,86.1,86.1-38.6,86.1-86.1,86.1ZM546.3,322.4c-23.5,0-42.6,19.1-42.6,42.6s19.1,42.6,42.6,42.6,42.7-19.1,42.7-42.6-19.1-42.6-42.7-42.6Z"/>
    <circle class="st0" cx="138.8" cy="365" r="64.4"/>
    <path class="st2" d="M138.8,451.1c-47.5,0-86.1-38.6-86.1-86.1s38.6-86.1,86.1-86.1,86.1,38.6,86.1,86.1-38.6,86.1-86.1,86.1ZM138.8,322.4c-23.5,0-42.7,19.1-42.7,42.6s19.1,42.6,42.7,42.6,42.6-19.1,42.6-42.6-19.1-42.6-42.6-42.6Z"/>
  </g>
</svg>