<?xml version="1.0" encoding="UTF-8"?><svg id="Capa_2" xmlns="http://www.w3.org/2000/svg" viewBox="0 0 363.04 251.61"><g id="layout3"><path d="M345.59,75.04c-15.52-12.29-37.69,2.47-32.06,21.39,8.8,7.79,16.68,16.55,25.13,24.72-4.36,1.85-.58,5.49.9,1.11.17-.12,1.68,1.3,1.73,1.61.15.86-6.62,6.7-7.49,7.92l-.86.18-1.37-1.73c4.36-.85,1.35-5.71-1.11-1.34-2.56-2.75-5.52-5.14-8.23-7.73-2.09-1.99-4.48-5.34-6.85-6.88-1.3-.84-1.32.65-.46,1.79,1.96,2.6,6.56,6.63,9.1,9.09.39.38,1.23.53,1.34.86.12.35.1.53,0,.61.13.16.25.34.38.51,1.67,1.6,3.3,3.22,4.96,4.83.58.57,1.1,1.19,1.61,1.82.4.43.8.86,1.21,1.29.68.17,1.18.57,1.46,1.12.06.05.14.09.19.14.15.14.29.3.44.46,0,0,.01,0,.02.01.48.23.81.62,1,1.08.14.16.28.32.42.47.1.1.21.19.31.29.03.03.06.07.09.1.12.11.22.23.35.33.28.19.56.36.87.49.21.11.4.25.57.42.13.17.26.34.39.51.13.21.21.44.26.68.38-.03.83.16,1.42.82l-1.29,1.37c-.05.13-.1.27-.17.41-.23.44-.67.8-1.17,1.02l-4.9,5.19c-.56.56-1.75-.73-2.11-1.31-.51-.28-.86-.73-1.05-1.25-.81-.4-1.44-1.01-1.87-1.75-1.49-.45-2.46-1.54-2.94-2.85-.35-.38-.67-.78-.99-1.19-.34-.33-.68-.65-1.01-.99-.66-.66-1.23-1.39-1.79-2.13-.33-.22-.59-.5-.78-.81-.24-.23-.48-.46-.71-.7-.1-.1-.19-.2-.29-.31-.07-.07-.14-.14-.2-.22-.06-.07-.11-.15-.17-.22-.02-.01-.04-.02-.05-.03-.43-.17-.81-.39-1.15-.66-.48-.07-5.12-5.72-4.16-1.79l23.69,23.71c-.58.94-2.96,1.93-1.56,2.9,1.54,1.07,2.04-.41,3.12-1.34l1.54,1.54-8.19,8.19c-3.12-2.44,2.39-2.89.02-4.89-1.7-1.44-2.29,2.59-3.34,1.8l-14.63-14.85-1.33.45,24.36,24.37c-.66,1.06-3.35,2.27-2.24,3.57,1.56,1.82,2.71-.9,3.8-2.02l1.54,1.54c-1,1-7.61,8.2-8.19,8.2-.15,0-1.16-1.01-1.08-1.48.09-.56,2.47-1.88,1.74-2.93-.06-.08-1.55-.47-1.9-.39-.7.17-1.6,1.7-1.87,1.7-1,0-12.13-12.84-14.16-14.19-2.17-.87-2.62-.68-1.13,1.13,6.37,7.76,15.86,14.79,22.61,22.27,1.7,1.89.36,1.06-.66,2.33-1.09,1.36-.16,1.61.88,2.63l1.78-2.2c2,.62,1.66,1.65.5,2.95-1.47.43-5.85,6.54-6.69,6.35-2.9-.65,1.36-3.4.64-4.42-.06-.08-1.55-.47-1.9-.39-.82.19-1.33,1.77-2.08,1.51-1.23-.43-6.89-6.99-8.41-8.46-1.82-1.76-3.67-3.57-5.5-5.36-1.73-1.69-2.86-.52-1.41,1.19l23.73,23.24c-4.24,2.17-.93,5.1,1.56,1.56l1.54,1.54-8.19,8.19-1.54-1.54c1.61-1.16,3-2.13.88-3.56-.72-.31-2.05,2-2.44,2-1.02,0-12.31-13.04-14.39-14.41-1.6-1.46-2.61-.45-1.15,1.15l23.08,23.01c.38,1.41-1.71,1.55-1.95,2.53-.8,3.21,3.31,1.62,3.5-.75.16-.11,1.63,1.27,1.75,1.57.23.54-6.03,6.29-6.84,7.32-1,.91-1.77.16-2.45-.69,0-.48,3.05-1.74,1.11-3.37-1.37-1.15-2.03,2.08-3.11,1.81-.99-1.83-2.79-2.8-4.2-4.2-2.76-2.73-5.3-5.84-8.15-8.49-.42-.39-3.05-2.66-3.39-2.37l-.36,1.24,18.53,18.03v6.87H31.69c-.95,0-.87-5.68-.44-6.64.58-1.27,4.64-4.27,5.82-5.48,1.57-1.61,12.75-12.45,12.56-13.35-.06-.31-.93-1.02-1.33-.46-2.16,1.39-13.79,14.84-14.84,14.84-.39,0-1.72-2.31-2.44-2-2.62,1.69.19,2.28.38,3.64.07.49-.89,1.46-1.05,1.46-.58,0-6.96-7.37-8.19-8.19,1.82-2.75,3.41,2.03,5.1.69,1.68-1.33-1.19-2.6-2-3.79l24.37-24.36-1.33-.46-14.86,14.84c-.92.34-1.36-2.78-2.87-2.01-2.43,1.25,1.33,3.02,1.32,3.57-.76.74-1.42,1.38-2.44.7-2.23-1.49-4.83-5.67-7.3-7.35l1.54-1.54c.3,0,2.08,2.96,3.11,1.32,1.04-1.17-1.55-2.51-1.55-2.88l24.36-24.36-1.47-.6-15.15,14.99c-2.49-4.96-5.39,0-1.11.89l-1.54,1.66c-1.22-.56-8.28-7.43-8.17-8.03.06-.31,1.56-1.73,1.73-1.61,1.74,4.71,5.63.57.9-1.1l24.69-24.37-.98-1.1-15.08,15.05c-.88.23-1.69-2.14-3.08-1.77-2.2.58,1.18,3.09,1.07,3.71-.05.26-.88,1.09-1.14,1.14-.57.1-8.21-7.54-8.11-8.1.06-.31,1.56-1.73,1.73-1.61.3,1.24,1.98,3.56,3.15,2.01,1.32-1.76-2.17-2.53-1.6-3.79l23.42-23.02.31-1.77-1.79.64-14.39,14.41c-.16.07-1.37-2.92-2.67-1.81-2.32,2,2.86,3.01-.05,4.41-1.36-.5-8.1-7.05-8.08-7.61.17-3.53,3.17,1.93,4.62-.3,1.01-1.56-2.05-2.26-1.38-3.55l23.1-22.57c1.46-1.6.45-2.61-1.15-1.15l-12.94,12.97c-1.65.61-3.04-1.42-4.57-.35-1.82,1.27,1.46,2.54,1.57,2.69.53.7-1.65,2.61-2.47,1.34-.68-1.43-6.99-6.72-6.81-7.71.53-2.9,3.07,1.48,4.36.57,1.28-.91-.53-2.98-1.73-3.28l22.85-22.55c1.29-1.6,2.87-3.34-.49-2.05l-14.16,14.19c-2.41-3.7-5.94-.18-1.55,1.34l-1.55,1.76-8.19-8.19,1.55-1.55c1.11,2.82,5.18,2.11,2.89-.24-1.14-1.18-2.11-.07,0-2.63,3.25-3.93,8.46-8.49,12.16-12.22,2.69-2.71,9.68-8.56,11.32-11.26,2.13-3.49.62-11.14-1.25-14.7-8.92-16.95-35.26-12.17-37.76,6.28v164.12h342.21V88.82c0-3.99-4.13-11.3-7.26-13.77Z" fill="#aaa"/><path d="M363.04,0v15.28c0,1.58-2.88,4.3-4.33,4.97-3.43,1.61-4.32.58-7.4.54-20.51-.22-41.03.21-61.54.01-2.26,3.42-4.58,6.4-9.18,5.77.52,1.28,2.79,1.93,2.01,3.53l-9.39,8.83c-.85.15-7.58-7.37-8.86-8.35-.73-.13-7.62,7.33-8.84,8.41-.56.1-.89-.16-1.32-.44-1.42-.93-7.6-8.15-8.78-7.95-.93.16-7.5,8.3-8.49,8.41-.6.07-.89-.18-1.35-.46-1.49-.89-7.27-8.15-8.34-7.96-3.03,2.74-5.53,6.05-8.93,8.4-1.32,0-7.42-7.66-9.26-8.42l-8.45,8.43-.84.38-8.93-8.82c-.6,0-7,7.5-8.4,8.43-.42.28-.76.54-1.32.45-2.38-3.3-5.84-5.73-8.46-8.88-.63,0-7.69,8.47-8.95,8.8-.62.16-.81-.07-1.26-.37-1.4-.94-7.22-7.83-7.95-7.89-3.48,2.42-6.36,5.65-9.31,8.66-.76.12-7.72-8.49-8.81-8.29-1.34,1.08-8.51,8.94-9.31,8.8l-9.43-9.24c-.74-.13-7.92,7.86-9.25,8.82l-18.24-18.12c-3.43,3.08-7.07,7.04-12.1,3.7-1.44-.96-3.6-4.58-4.23-4.65-20.69.24-41.4-.2-62.09.02-3.49.04-4.91,1.3-8.4-1.31-.9-.67-3.33-3.66-3.33-4.65V.66s.62-.66.66-.66h362.38ZM10.64,19.93c.5-.77,0-15.93,0-18.38,0-1.15-8.11-.45-9.31-.22v13.95c0,.18,1.66,2.58,1.98,2.9,1.22,1.22,6.4,3.2,7.33,1.76ZM362.15,14.84c.57-3.15,0-9.7,0-13.29,0-.92-5.51-.24-6.38-.27s-1.91-.63-2.93-.4v19.05c3.21,1.6,8.73-1.88,9.31-5.09ZM265.52,13.72c.41-.62-1.11-1.71-1.55-2.2-1.69,2.52-5.83,5.02-7.34,7.28-.81,1.21-.27,1.61.69,2.45.71-1.69,4.33-3.22,3.6-.43-.3,1.13-2.3,1.9-2.04,2.2l14.78,14.15c1.02-1.12,7.95-7.15,7.79-8.1l-14.37-14.45c-.51,0-1.39,2.89-2.67,1.81-2.14-1.8,1.01-2.55,1.12-2.71ZM173.06,12.66c-.27-.28-.09-.83-.41-.7l-8.19,8.19,1.76,1.55c.81-4.24,5.39-1.12,1.34,1.55l14.78,14.36,7.28-7.13.03-.95-13.9-14.47c-.72.46-1.89,2.52-2.82,2.13-.08-.03-1-1.29-.98-1.46.18-1.18,1.54-1.59,1.79-2.25.27-.72-.44-.57-.69-.83ZM191.2,14.31c.22-.26,1.17-.51,1.18-.79l-1.54-1.54-8.2,8.4c.92-.26,1.38,1.4,1.55,1.34.76-.27,1.81-2.73,2.9-2.01,2.17,1.42-1.34,3.05-1.34,3.56l14.78,14.36c1.04-1.13,7.93-7.31,7.79-8.1-2.03-1.42-13.35-14.45-14.37-14.45-.33,0-1.39,2.12-2.65,1.76-1.01-.29-.65-1.86-.08-2.53ZM208.48,15.2c.6-.76,3.21-1.4,1.42-2.82-.46-.36-.5-.54-1.12-.23-.58.3-7.6,7.4-7.51,7.94.05.26.88,1.09,1.14,1.14,1.1.2,1.87-2.89,3.29-1.09,1.23,1.56-1.87,1.95-1.16,3.33l14.21,14.17,7.73-8.13-14.38-14.9c-1.07,1.79-1.98,3.28-4.21,2.21.29-.46.31-1.26.59-1.62ZM229.17,13.72c-.42-.71-1.3-2.04-2.21-1.57-.46.24-7.07,6.87-7.33,7.33-.17.3-.36.43-.18.86.86-.21,1.39,1.72,1.73,1.37.43-.45.98-3.06,2.67-1.99,1.48.93-.84,2.75-1.77,3.1l14.85,14.83,8.19-8.19-14.18-14.2c-1.39-.71-1.78,2.38-3.34,1.15-1.45-1.14.32-2.43,1.57-2.69ZM246.37,12.08c-.6-.28-1.03-.1-1.48.3-.85,1.78-7.22,6.1-6.8,7.68.13.48.73.83,1.06,1.19,1.08-.93,1.58-2.41,3.12-1.34,1.4.97-.98,1.96-1.56,2.9l15.05,14.84c1.6-3.33,5.43-5.1,7.52-8.2-2.66-1.79-12.63-14.32-14.81-14.42-.37-.02-1.21,3.16-2.93,1.15-.99-1.15.72-2.24,1.8-2.47.37-.28-.88-1.6-.98-1.65ZM101.84,16.26c-.49.65-2.66,1.59-2.99.35-.35-1.33,1.62-2.02,1.74-2.71.1-.57-.88-1.55-1.46-1.45s-7.89,7.54-7.79,8.1c.06.31,1.56,1.73,1.73,1.61,1.47-4.39,5.25-.74.9,1.11l14.85,14.72c2.76-2.25,5-5.35,7.72-7.44l.02-.62-14.4-14.85c-.46.07-.07.84-.33,1.19ZM136.44,12.52h-1.15s-7.62,7.63-7.62,7.63l1.54,1.54c1.5-1.17,1.52-3.37,3.35-1.12,1.14,1.4-1.02,1.79-1.79,2.68l14.78,14.36c.92-1.27,7.75-6.84,7.72-7.72l-16.84-17.37ZM156.93,15.06c-2.3,5.18-5.85,1.68-1.35-1.55-2.22-2.39-1.88-.67-3.06.47-1.87,1.8-3.86,3.55-5.82,5.25-1.04.59.19,2.46.68,2.46.62,0,1.71-2.98,3.12-1.79,2.07,1.73-1.62,2.69-.93,4.01l14.14,13.7c1.21-.99,7.96-7.16,7.79-8.1l-14.59-14.46ZM118.5,15.19c.22-.26,1.17-.51,1.18-.79l-1.54-1.54-8.19,8.19,1.54,1.54c2.19-4.31,5.88-.62,1.55.9,4.37,5.34,9.65,10.39,14.79,15.02.94-1.19,7.92-7.33,7.79-8.1l-13.72-13.81c-1.33-.91-1.99,1.5-3.31,1.12-1.01-.29-.65-1.86-.08-2.53Z" fill="#aaa"/><path d="M260.51,78.54c2.22,2.54,3.05,5.85,1.49,8.96-1.36,2.72-12.89,12.35-12.87,13.27,3.94,2.34.95,5.84-1.56,1.56l-1.54,1.54,8.19,8.19,1.99-1.99c-.15-.6-1.11.31-1.29.19-.1-.07-1.31-1.91-1.33-2.03-.08-.44.51-1.11.85-1.29,1.33-.68,2.05,2.63,3.71,1.08l14.25-14.12,1.1,1.1-24.37,23.93,2.2,2.22-1.32,1.34-2.44-2-1.54,1.54,8.19,8.19,1.55-1.76c-4.34-1.66-.58-5.07,1.55-1.34l15.08-15.06,1.1,1.1-24.38,24.37c-.1.22,3.03,1.1,1.79,2.67-1.42,1.8-2.18-1.29-3.29-1.09-.38.07-1.21.98-1.13,1.46.1.56,6.94,7.08,8.1,7.78l1.61-1.52c-1.48.22-3.09-2.9-1.54-3.32,1.31-.35,2.01,1.58,2.65,1.66,1.07.14,13.46-13.47,15.52-14.94l.68,1.1-24.39,24.15c.24.82,1.57.87,2.02,1.77.47.95-.81,1.96-1.72,1.73-1.07-.28-.97-2.14-1.85-1.73-.31.14-1.02,1.25-1,1.56.04.56,7.48,7.81,8.03,7.71,2.38-.44-.09-2.05-.37-2.63-1.36-2.76,2.38-2.68,3.09,0l15.08-15.05,1.11.66-23.94,24.36c3.64,2.52.41,5.81-1.56,1.55-.38.51-1.65,1.21-1.52,1.93.09.54,6.98,6.56,7.73,7.81l1.54-1.54c0-.47-3.28-1.88-.89-3.56,1.02-.71,2.22,2.09,2.45,2l15.52-15.06c1.18-.49.56,1.48.24,2.01-.97,1.61-6.8,6.81-8.64,8.64-5.58,5.53-11.46,10.75-16.83,16.65-.16.17-.47.19-.7.16.97,1.13,7.4,8.06,8.14,7.93,2.58-1.75,8.27-9.6,11.13-9.66,2.31-.05,4,2.26,3.69,4.48-.35,2.46-4.28,11.91-5.6,14.37-5.63,10.54-18.72,14.28-29.03,8.04-14.29-8.65,3.59-17.67,8.92-24.95,0-.5-6.57-6.88-7.01-7.11-.52-.27-.74-.21-1.12.22l-16.81,16.88c-.69.76-2.01.5-2.02-.68l24.38-23.93c-.98-1.01-2.69-1.99-1.11-3.36,1.33-1.15,2.34,1.7,2.48,1.8.2.14,1.5-.66,1.56-1.29.08-1-6.99-7.07-8.02-8.44l-1.07,2.16,2.18,1.15c-1.46,2.8-2.39,2.29-3.76-.21l-15.25,14.88-1.37-.49,24.36-24.36c-3.7-2.47-.27-5.72,1.35-1.55l1.76-1.55c-1.33-.9-7.44-8.15-8.2-8.09-.31.03-1.66,1.49-1.54,1.66,1.23.23,3.03,1.59,1.58,2.69-2.04,1.54-2.13-1.69-3.11-1.35l-14.86,14.84c-.4.56-1.27-.14-1.33-.46-.35-1.7,22.05-21.31,24.37-24.8l-2.21-1.79c.93-2.61,2.48-1.36,3.77.23.96-.83,1.5-1.24.69-2.45-.52-.78-6.79-6.9-7.28-6.81-.31.05-1.73,1.56-1.61,1.73,1.22.22,3.04,1.6,1.58,2.69-1.99,1.49-1.96-1.6-3.1-1.34l-14.19,14.18c-.56.44-2.25.97-2.02-.25l24.39-24.36c-3.95-2.27-1.01-5.1,1.55-1.56l1.54-1.54c-2.4-1.8-4.97-5.78-7.29-7.34-1.03-.69-2.45.03-2.45.69,0,.23,1.9,1.74,2.2,2.21-1.95,2.5-2.28,1.41-3.76-.66l-14.39,14.41c-1.69,1.37-2.49.68-1.15-1.15,6.01-8.19,18.31-17,25.35-24.94.33-.37,1.06-1.35.99-1.78-.1-.59-7.39-7.38-8.53-8.22-1.2.29-1.35,2.1-1.74,2.49-.28.28-1.13.25-1.67.76-4.92,4.67-9.43,9.83-14.46,14.36l-1.47-.6,27.94-27.89c-2.1-3.08-5.26-5.44-7.78-8.2-.51,0-6.1,6.46-7.03,7.36-2.45,2.36-5.32,4.57-7.81,7.02-.54.53-3.39,4.86-4.44,3.77-.25-.26.08-1.93.64-2.24,11.13-8.85,18.71-25.6,35.66-18.31,1.53.66,5.96,3.55,7,4.74ZM243.67,108.62c-4.61,1.05-3.15,10.11,3.26,8.12,4.41-1.37,3.5-9.66-3.26-8.12ZM242.18,134.07c4.23,4.14,10.36-2.4,6.07-6.29-4.39-3.97-9.71,2.72-6.07,6.29ZM244.56,144.94c-5.38,1.21-4.21,9.3,1.19,8.77,6.24-.62,4.75-10.1-1.19-8.77ZM245.43,163.16c-5.86.09-5.93,9.8,1.2,8.7,4.84-.75,4.02-8.78-1.2-8.7ZM244.13,181.73c-4.25,1.09-3.96,8.66,1.67,8.51,6.12-.16,5.12-10.25-1.67-8.51Z" fill="#aaa"/><path d="M123.96,89.19c2.68,2.68,5.19,5.61,7.91,8.28,4.01,3.95,11.1,9.45,14.21,13.69,1.32,1.8.66,2.47-1.15,1.15-3.12-2.28-8.37-8.08-11.48-11.1-.86-.84-2.18-2.21-2.69-3.31-.43-.38-1.4,3.12-3.11,2.01-1.73-1.12.1-2.6,1.34-3.12l-1.55-1.54-8.64,8.63,27.47,27.46-1.33.46-15.29-14.85c-.15-.07-1.26,2.82-2.44,2.02-2.25-1.68.71-2.61.84-3.17.3-1.38-.81-1.84-1.97-1.09-2.27,1.47-4.92,5.6-7.28,7.33l1.55,1.55c.38-.9,1.85-2.21,2.88-1.55,1.58,1.22-1.33,2.71-1.33,3.1l24.36,24.36-1.47.6c-5.27-4.73-10.02-10.08-15.15-14.99-.23-.1-1.92,4.38-3.29.72,1.04-.76,2.71-2.97.57-3.35-.57-.1-8.21,7.54-8.11,8.1.05.31,1.56,1.73,1.73,1.61-.05-1.06,2.03-3.15,2.89-1.78,1,1.59-1.48,2.15-1.99,3.1.35-.05.64.07.87.33,7.09,7.98,15.44,15.01,22.86,22.69,1.03.6.76,2.75-.46,1.79l-15.07-15.06c-2.16,4.41-5.55,1.09-1.11-1.11-.46-.33-1.14-1.44-1.61-1.52-.57-.1-8.21,7.54-8.11,8.1.05.31,1.56,1.73,1.73,1.61,1.53-4.39,5.05-.86,1.35,1.55,7.16,7.45,14.83,14.44,21.93,21.95.42.45,1.17.68,1.42.99,1.29,1.55.55,3.1-1.21,1.44l-14.39-14.41c-.94.58-1.93,2.95-2.9,1.56-1.07-1.54.41-2.04,1.34-3.12l-1.55-1.54c-.95,1.62-7.95,7.26-7.68,8.57.07.35,1.02,1.28,1.25,1.17.75-1.92,1.75-2.46,3.55-1.32.35.47-1.55,2.67-2.21,2.87l23.73,23.24c1.46,1.59.45,2.61-1.15,1.15-5.56-5.68-11.6-11.04-16.91-16.97l-1.24.11-6.61,7.02c.52.68.94,1.44,1.5,2.09,3.15,3.66,8.85,7.55,11.51,11.52,5.9,8.82-9.44,15.1-16.44,14.43s-12.57-4.11-16.02-9.89c-1.45-2.43-6.37-13.94-6.34-16.31.05-3.66,3.7-4.58,6.36-2.44,2.26,1.82,4.78,5.29,7.03,7.27.38.33,1.49,1.2,1.9,1.13.92-1.4,7.45-6.59,7.3-7.64-2.31-3.81-26.91-25.25-26.53-27.1.1-.49.73-.77,1.33-.46.17.09,2.56,2.23,2.94,2.6,1.55,1.5,11.05,12.24,11.9,12.24.39,0,1.72-2.31,2.44-2,2.12,1.43.73,2.4-.88,3.56l1.54,1.54,8.19-8.19-1.54-1.54c-2.89,4.07-5.23,1.1-1.56-1.56l-24.37-24.36,1.72-.61,14.24,14.36c1.37.69,2.66-3.61,3.95-.09-1.04.76-2.7,2.97-.57,3.35.57.1,8-7.32,7.95-7.97-.23-3.01-3.18,1.15-4.25.25-1.64-1.03,1.33-2.8,1.33-3.1l-24.36-24.36,1.47-.6c5.13,4.89,10.22,9.88,15.15,14.99,1.93-4.28,5.39-.81,1.11,1.11.51.38,1.21,1.65,1.93,1.52.56-.1,7.88-7.55,7.79-8.1-.08-.47-1.19-1.15-1.52-1.61-.18-.08-1.41,3.46-2.9,1.56-1.23-1.56,1.87-1.95,1.16-3.33l-23.32-22.78-.42-2.03,16.18,15.06c.45-1.94,3.89-2.58,3.26-.29-.39,1.42-3.03,1.32-.6,3.41,1.02-.04,7.2-6.84,8.04-8.2-1.55-4.35-2.39,2.49-4.3.02-1.37-1.76,1.08-1.62,1.16-3.35l-23.1-23.01c-1.46-1.6-.45-2.61,1.15-1.15l14.39,14.41c1.23-1.51,1.66-3.13,3.57-1.34.41.7-1.54,2.38-2.01,2.89l1.54,1.54,7.34-7.27c1.02-.6-.2-2.46-.7-2.46-.23,0-1.74,1.9-2.22,2.2-2.51-1.95-1.41-2.27.66-3.75l-13-12.62c-3.8-8.32,6.7-14.94,13.78-15.84,3.36-.42,8.28.26,11.36,1.71,2.26,1.06,16.61,15.61,18.89,18.34.83.99,1.64,1.92-.45,1.78l-17.95-17.94-8.19,8.19c0,.49,4.46,4.11,5.16,4.81ZM121.3,110.02c-3.52-3.95-9.96.91-6.94,5.38,3.42,5.05,11.02-.8,6.94-5.38ZM117.68,126.93c-5.81.15-5.59,9.59,1.3,8.61,4.85-.69,4.51-8.76-1.3-8.61ZM121.32,146.75c-2.95-3.82-9.93-.05-7.34,4.91,2.8,5.37,11.26.17,7.34-4.91ZM116.47,163.57c-4.93,1.3-3.31,9.45,1.99,8.66,5.92-.88,4.11-10.27-1.99-8.66ZM115.41,189.87c4.53,2.81,9.31-3.74,5.15-7.12-4.77-3.88-10.15,4.02-5.15,7.12Z" fill="#aaa"/><path d="M171.1,119.6c-.6.11-2.95-.15-3.1,0-.82.82,2.17,5.92-3.32,4.87-2.17-.41-.61-4.38-1.1-4.87s-4.24,1.04-3.56-1.11c.11-.33,4.82-3.69,5.55-4.23.96.54,6.59,4.3,5.54,5.33ZM169.33,118.71c-.37-.79-3.13-3.11-3.77-3.11-.85,0-2.72,2.49-3.77,2.9.43.6,2.4-.04,2.66.22.17.17-.13,3.68,0,4.43h2.22c.2-2.78-1.17-5.55,2.66-4.44Z" fill="#aaa"/><path d="M84.21,227.69c-.09-.61,1.66-3.32,2.22-2.65l.43,7.95-7.96,1.34c.13-.98,1.8-2.08,1.8-2.88,0-1.78-5.5-1.83-1.36-5.75,1.72-1.62,2.98,1.91,4.87,1.99ZM85.11,227.25c-.75,4.35-4.35-1.6-5.32-.89-.1.07-.97,2.08-.89,2.2.12.18,3.39,1.67,3.46,2.44.04.49-1.44,1.84-1.25,2l4.86-.9-.87-4.85Z" fill="#aaa"/><path d="M71.41,139.49c.43.38,3.6-.59,3.06.7-.22.52-4.89,4.64-5.46,4.6l-6.06-5.03c.98-.59,2.58.15,3.58-.43.95-.55-1.12-4.41,1.49-4.69,5.67-.61,1.86,3.51,3.39,4.85ZM72.7,140.43c-4.33,1.21-1.65-4.44-3.36-4.85-2.56-.61-1.1,4.45-1.51,4.85-.22.22-1.89-.35-2.22.22.69.4,2.79,2.91,3.31,2.91.67,0,3.08-2.51,3.78-3.13Z" fill="#aaa"/><path d="M168.26,171.62c.56.45,3.28,2.77,2.84,3.36-.41.54-2.51-.2-2.9.42-1.34,2.11,2.17,5.4-4.64,4.46-.19-1.13.37-3.6-.2-4.46-.51-.76-3.93.31-3.34-1.07.14-.33,5.26-4.55,5.62-4.6.94.34,1.81,1.26,2.61,1.9ZM169.33,173.65c-3.9-2.69-3.48-3.41-7.09.22,3.26.04,2.03,2.78,2.21,5.09h2.22c.18-1.1-.37-3.66.19-4.46.62-.88,2.35.14,2.46-.85Z" fill="#aaa"/><path d="M146.28,48.73c.12.65-.16,3.38,0,3.54.22.22,4.16-.24,4.42.02.24.24.16,4.25.01,4.41-.2.22-4.22-.2-4.43,0-.48.48,1.04,4.24-1.11,3.56-.34-.11-3.59-4.99-4.55-5.54-.04-.64,2.79-3.83,3.43-4.45.35-.33,1.81-2.02,2.23-1.53ZM149.83,53.15c-2.02-.23-4.75,1.02-5.1-1.77l-2.8,3.32,3.02,3.32c-.11-3.41,2.38-1.96,4.88-2.21v-2.66Z" fill="#aaa"/><path d="M276.6,225.69c.03-.12.65-.87.89-.45,1.09.46,1.63,2.71,2.43,2.43,2.85-3.12,3.99-3.31,5.91.68-.24.91-3.31,2.24-3.46,2.45-.45.65,2.31,3.03,1.76,3.52l-7.53-1.33c.33-2.05-.46-5.47,0-7.31ZM284.58,228.56c-1.52-4.62-3.47.47-5.1.35-.55-.04-1.02-1.54-1.99-1.22-.3,5.23-.15,4.66,4.88,5.31-2.71-2.3.01-3.27,2.22-4.44Z" fill="#aaa"/><path d="M212.77,226.8c.33,1.34-2.01,1.75-2.19,2.48-.49,2,4.9,3.04-.34,5.87-2.02,1.09-2.45-2.48-3.25-3.02-.55-.38-2.45,1.85-3.53,1.32l1.77-7.53,7.53.89ZM210.55,227.25c-.83.15-4.6-.22-4.85.02-.16.16-.51,3.73-.9,4.41.98.14,1.36-1.07,2.4-.92.22.03,2.39,3.56,2.69,3.56.09,0,1.49-.81,1.55-.88.48-.55-2.94-3.37-2.13-4.79.19-.33,1.58-.27,1.24-1.4Z" fill="#aaa"/><path d="M214.99,48.73c.12.65-.16,3.38,0,3.54.85.86,5.54-2.12,4.9,2.89-.37,2.97-4.24.87-4.9,1.53-.31.31.65,4.1-.66,3.54-.41-.17-4.68-5.26-4.57-5.9s4.67-6.25,5.23-5.61ZM214.1,53.16c-.22-.22.35-1.89-.22-2.22-.38.66-2.8,3.05-2.85,3.38-.1.55,2.28,3.13,2.85,3.7.57-.33,0-2,.22-2.22.29-.3,4.01.53,4.69-.43.06-.09-.2-2.12-.27-2.2-.26-.27-4.19.2-4.41-.02Z" fill="#aaa"/><path d="M69.57,76.61l-7.96.02,2.66-3.09c-.73.07-3.2-2.97-3.1-3.32,4.06-5.17,5.08.65,6.43.65.22,0,1.75-1.9,2.22-2.2,1.52-.03-.31,6.88-.24,7.94ZM69.15,71.32c-3.65,3.04-3.46-5.06-6.63-.66.96,1.12,3.11,2.41,2.36,4.1-.31.7-1.14.28-1.04.99.83-.14,4.6.23,4.85-.02.16-.15.62-4.18.46-4.41Z" fill="#aaa"/><path d="M203.46,119.6c-.65.12-3.38-.16-3.55,0-.86.86,2.15,5.4-2.88,4.91-2.96-.29-.9-4.27-1.54-4.91-.31-.31-4.1.66-3.54-.66.23-.55,5.06-4.64,5.53-4.65.86-.02,4.48,3.17,5.32,3.99.43.42.84.58.67,1.32ZM201.25,118.71c-2.73-3.79-4.2-3.9-7.09-.21.33.57,2,0,2.22.22.17.17-.13,3.68,0,4.43,4.07,1.13,1.93-3.66,2.66-4.43.13-.13,1.73.09,2.22,0Z" fill="#aaa"/><path d="M294.11,76.63c-.66-.21-1.72-7.46-1.1-7.97.56.2,2.66,2.22,2.88,2.21.63-.02,2.04-3.96,4.01-2.67,4.59,3.01-.67,4.29-.68,5.56,0,.41,2.51,1.8,2.21,2.88-1.89-.36-5.73.49-7.31,0ZM299.65,75.31c-4.83-1.02,3.23-4.39,0-6.01-1.96-.98-2.95,5.53-5.76,1.58.99,4.68-.54,5.15,4.66,4.87.5-.03,1.21.29,1.1-.44Z" fill="#aaa"/><path d="M296.55,134.66c.13.79-.18,4.7,0,4.88,1.06,1.06,7.15-2.49.42,3.3-.62.53-1.44,2.18-2.79,1.95-.32-.06-4.34-3.63-5.04-4.24-.3-.26-.85.02-.56-1.01,5.36.42,2.91-.39,3.54-3.77.35-1.86,2.92-.9,4.44-1.11ZM295.7,140.39c-.59-.52.32-3.36-.24-4.44-.27-.52-2.32-.07-2.41.08-.37.62.22,4.13-.04,4.39s-2.25-.53-2.21.44c1.11.11,2.84,2.73,3.68,2.61s2.72-2.17,3.41-2.82c-.35-.57-1.83.05-2.18-.25Z" fill="#aaa"/><path d="M24.38,53.15c-.12-.65.16-3.38,0-3.54-.18-.18-4.09.14-4.88,0-1.52-6.78,4.02-3.56,4.88-4.43.13-.13-.36-3.59.66-3.54.38.02,4.66,5.5,4.66,5.98s-4.76,6.17-5.32,5.53ZM25.7,51.38c0-1.48,2.69-2.59,2.68-3.76,0-.63-2.32-3.39-3.11-3.76.69,3.73-1.78,1.62-4.17,2.28-.76.21-1.13,2.33.39,2.59.77.13,3.61-.17,3.77,0,.27.27-.56,2.59.44,2.66Z" fill="#aaa"/><path d="M203.46,174.97h-3.54s0,4.88,0,4.88h-4.44c-.13-.79.18-4.7,0-4.88-.27-.27-4.19.61-3.55-.66l5.92-4.63,5.6,5.28ZM200.8,174.08c-.41-.62-2.49-2.99-2.94-3.07-.54-.09-3,2.4-3.71,2.85.33.57,2,0,2.22.22.18.18-.13,4.08,0,4.88h2.66c.13-.79-.18-4.71,0-4.88.13-.13,1.35.09,1.78,0Z" fill="#aaa"/><path d="M317.83,45.19c.88.88,6.39-2.37,4.88,4.43-1.1.18-3.66-.37-4.46.19-1.07.74.43,3.31-1.07,3.35l-4.63-5.92,5.07-5.59c.58.58-.03,3.29.22,3.54ZM316.94,46.07c-.22-.22.35-1.89-.22-2.22-.3.89-2.78,2.94-2.85,3.38-.09.54,2.4,3,2.85,3.7.04-3.26,2.78-2.03,5.1-2.21,1.14-4.28-4.26-2.03-4.88-2.66Z" fill="#aaa"/><g id="line1"><rect id="mid-1" x="21.2" y="112.03" width="29.57" height="11.43" transform="translate(-72.72 59.93) rotate(-45)"/><rect id="mid-2" x="21.2" y="130.61" width="29.57" height="11.43" transform="translate(-85.86 65.37) rotate(-45)"/><rect id="mid-3" x="21.61" y="148.6" width="29.57" height="11.43" transform="translate(-98.46 70.94) rotate(-45)"/><rect id="mid-4" x="21.25" y="167.32" width="29.57" height="11.43" transform="translate(-111.8 76.16) rotate(-45)"/><rect id="mid-5" x="22" y="184.84" width="29.57" height="11.43" transform="translate(-123.97 81.82) rotate(-45)"/><rect id="mid-6" x="22" y="203.33" width="29.57" height="11.43" transform="translate(-137.04 87.24) rotate(-45)"/><rect id="mid-7" x="22" y="221.52" width="29.57" height="11.43" transform="translate(-149.9 92.57) rotate(-45)"/></g><g id="line2"><rect id="pid-1" x="87.98" y="91.92" width="29.57" height="11.43" transform="translate(99.14 -44.07) rotate(45)"/><rect id="pid-2" x="87.98" y="110.46" width="29.57" height="11.43" transform="translate(112.25 -38.64) rotate(45)"/><rect id="pid-3" x="87.98" y="128.36" width="29.57" height="11.43" transform="translate(124.9 -33.4) rotate(45)"/><rect id="pid-4" x="87.98" y="146.85" width="29.57" height="11.43" transform="translate(137.98 -27.98) rotate(45)"/><rect id="pid-5" x="87.49" y="164.79" width="29.57" height="11.43" transform="translate(150.52 -22.38) rotate(45)"/><rect id="pid-6" x="87.49" y="182.79" width="29.57" height="11.43" transform="translate(163.25 -17.11) rotate(45)"/><rect id="pid-7" x="118.4" y="195.7" width="29.57" height="11.43" transform="translate(181.43 -35.19) rotate(45)"/><rect id="pid-8" x="117.87" y="177.27" width="29.57" height="11.43" transform="translate(168.24 -40.2) rotate(45)"/><rect id="pid-9" x="118.4" y="159.27" width="29.57" height="11.43" transform="translate(155.67 -45.86) rotate(45)"/><rect id="pid-10" x="118.4" y="140.86" width="29.57" height="11.43" transform="translate(142.66 -51.25) rotate(45)"/><rect id="pid-11" x="117.87" y="122.22" width="29.57" height="11.43" transform="translate(129.32 -56.33) rotate(45)"/><rect id="pid-12" x="118.4" y="103.9" width="29.57" height="11.43" transform="translate(116.52 -62.07) rotate(45)"/><rect id="pid-13" x="118.79" y="85.1" width="29.57" height="11.43" transform="translate(103.34 -67.85) rotate(45)"/></g><g id="line3"><rect id="pid-14" x="90.69" y="21.27" width="29.57" height="11.43" transform="translate(49.98 -66.68) rotate(45)"/><rect id="pid-15" x="109.44" y="21.64" width="29.57" height="11.43" transform="translate(55.72 -79.83) rotate(45)"/><rect id="pid-16" x="127.38" y="20.72" width="29.57" height="11.43" transform="translate(60.33 -92.78) rotate(45)"/><rect id="pid-17" x="145.44" y="20.72" width="29.57" height="11.43" transform="translate(65.62 -105.55) rotate(45)"/><rect id="pid-18" x="164.07" y="20.72" width="29.57" height="11.43" transform="translate(71.08 -118.73) rotate(45)"/><rect id="pid-18-2" x="182.34" y="20.72" width="29.57" height="11.43" transform="translate(76.43 -131.64) rotate(45)"/><rect id="pid-19" x="200.76" y="20.72" width="29.57" height="11.43" transform="translate(81.83 -144.67) rotate(45)"/><rect id="pid-20" x="218.71" y="20.31" width="29.57" height="11.43" transform="translate(86.79 -157.49) rotate(45)"/><rect id="pid-21" x="237.45" y="20.31" width="29.57" height="11.43" transform="translate(92.28 -170.73) rotate(45)"/><rect id="pid-22" x="255.09" y="19.88" width="29.57" height="11.43" transform="translate(97.14 -183.33) rotate(45)"/></g><g id="line4"><rect id="pid-23" x="215.26" y="85.01" width="29.57" height="11.43" transform="translate(456.87 -7.78) rotate(135)"/><rect id="pid-24" x="215.26" y="103.59" width="29.57" height="11.43" transform="translate(470 23.93) rotate(135)"/><rect id="pid-25" x="215.26" y="122.65" width="29.57" height="11.43" transform="translate(483.48 56.47) rotate(135)"/><rect id="pid-26" x="215.26" y="141.13" width="29.57" height="11.43" transform="translate(496.55 88.02) rotate(135)"/><rect id="pid-27" x="215.26" y="159.64" width="29.57" height="11.43" transform="translate(509.63 119.61) rotate(135)"/><rect id="pid-28" x="215.26" y="177.7" width="29.57" height="11.43" transform="translate(522.4 150.44) rotate(135)"/><rect id="pid-29" x="215.26" y="195.46" width="29.57" height="11.43" transform="translate(534.96 180.75) rotate(135)"/><rect id="pid-30" x="245.81" y="183.55" width="29.57" height="11.43" transform="translate(578.7 138.82) rotate(135)"/><rect id="pid-31" x="245.81" y="165.03" width="29.57" height="11.43" transform="translate(565.6 107.2) rotate(135)"/><rect id="pid-32" x="245.81" y="146.63" width="29.57" height="11.43" transform="translate(552.59 75.79) rotate(135)"/><rect id="pid-33" x="245.81" y="128.46" width="29.57" height="11.43" transform="translate(539.75 44.79) rotate(135)"/><rect id="pid-34" x="245.49" y="110.3" width="29.57" height="11.43" transform="translate(526.35 14.02) rotate(135)"/><rect id="pid-35" x="245.81" y="91.74" width="29.57" height="11.43" transform="translate(513.78 -17.9) rotate(135)"/></g><g id="linea5"><rect id="pid-36" x="312.66" y="112.22" width="29.57" height="11.43" transform="translate(475.59 432.85) rotate(-135)"/><rect id="pid-37" x="312.66" y="130.66" width="29.57" height="11.43" transform="translate(462.54 464.34) rotate(-135)"/><rect id="pid-38" x="312.66" y="149.33" width="29.57" height="11.43" transform="translate(449.34 496.21) rotate(-135)"/><rect id="pid-39" x="312.39" y="167.22" width="29.57" height="11.43" transform="translate(436.23 526.57) rotate(-135)"/><rect id="pid-40" x="312.66" y="185.86" width="29.57" height="11.43" transform="translate(423.51 558.57) rotate(-135)"/><rect id="pid-41" x="312.66" y="204.26" width="29.57" height="11.43" transform="translate(410.5 589.99) rotate(-135)"/><rect id="pid-42" x="312.66" y="222.74" width="29.57" height="11.43" transform="translate(397.43 621.54) rotate(-135)"/></g></g></svg>