<?xml version="1.0" encoding="UTF-8"?><svg id="Capa_2" xmlns="http://www.w3.org/2000/svg" viewBox="0 0 285.88 259.23"><g id="layout4"><path d="M135.56,32.99c.06.14.12.27.16.42.25.08.51.12.76.17.04,0,.1.01.14.02.03,0,.07.02.1.03.06.01.12.03.18.04.09,0,.18,0,.27.02.7-.33,1.38-.69,2.07-1.05,1.19-3.98-4.9-4.06-3.48.35h-.18Z" fill="#aaa"/><path d="M112.97,29.34c-.2,0-.39-.01-.59-.02-.67.19-1.83.61-2.06.88-.5.6-.4,1.79-.36,2.4.14.14.28.29.41.46-.06-.08-.13-.16-.19-.25.21.27.45.52.7.75.16.11.33.21.51.3.15.05.29.09.44.12.04,0,.07,0,.11,0,.33-.19.64-.41.97-.62.28-.19.58-.32.88-.44.81-.82-.23-2.99-.83-3.58Z" fill="#aaa"/><path d="M265.97,7.63h-46.09c.11-.36.59-.47,1.17-.51-.46-.15-.9-.37-1.3-.66-.05-.03-.08-.07-.12-.11-.24.03-.5.03-.8.01-.12-1.17-.58-2.47-.66-3.62-.09-1.32,1.3-2.68-1.02-2.75H9.09c-1.81.21-1.48.68-1.03,2.14,1.98-.84,4.24-.28,6.34-.42.05.44-.85.87-.85,1.05v12.05h-7.82c-.35,0-.75,1.03-.66,1.46l-.46,22.79c-.39,1.18-3.15.79-4.17.27l-.44,18.74c.1.43,3.05,1.37,3.55,1.93,1.09,1.22-.3,16.26-.15,19.07l-2.11.42c3.31-.53,1.72,1.11,2.21,3.5.73,3.56,6.97,13.3,9,17.21,9.64,18.5,19.45,37.08,29.44,55.96.9,1.7,1.82,4.69,2.62,6.1.07.12,1.71,1.76,2.1,1.73l18.47-9.24c.19.38.03,1.29.12,1.47,4.72,9.84,9.4,20.56,13.79,30.57.38.87,2.53,5.5,2.58,5.81,0,.05-.01.09-.05.12.09.26.15.54.14.82,0,.16,0,.33.01.49,0,.05.02.1.03.15.09.4.2.79.33,1.17.12.37.26.74.39,1.11.07.19.13.37.2.56.04.11.08.22.12.32,0,.01.01.04.03.06.03.08.08.18.09.21.05.1.1.21.14.31.1.21.19.41.29.62.26.56.5,1.12.72,1.69.29.73.61,1.48.81,2.24,0,.04,0,.07.02.11l.1-.05,18.38,42.59c.38.72.75,1.45,1.08,2.2-.04-.09-.07-.19-.11-.28.08.2.17.4.25.6-.04-.11-.09-.21-.14-.31.25.6.47,1.21.71,1.81.01.03.02.05.03.08.17.35.27.69.3,1.04.03.07.07.14.1.21.19.25.35.51.45.8,0,0,0,0,0,0,.23.22,2.37,4.93,2.87,6.22.06.03.13.05.2.08l.51.39c.31.31.52.68.64,1.1,0,.06.02.13.03.19,12.97-7.09,26.73-15.52,39.73-23.17,34.5-20.31,68.1-40.27,102.24-60.53,11.17-6.62,22.4-13.16,33.6-19.69L265.97,7.63ZM268.93,38.07l13.11,99.35c-.89.01-.08-1.44-.81-1.93-.52-.35-1.51-.14-2.15-.18-.38-1.47,1.35-.45,1.94-1.24-1.19-10.42-2.37-21.22-4.45-31.55l-2.14-.19c-.38-1.7,1.55-.31,1.69-.42.09-.65.4-1.16.39-1.85-.13-6.84-2.33-18.17-3.4-25.37-.34-2.31-.22-6.15-3.33-5.34-.64-2.2,2.01-.5,2.13-2.32l-3.83-28.33.85-.63ZM264.64,9.38l3.02,23.19c-1.11.1-.7.05-.83-.64-1.15-6.17-1.31-12.77-2.63-18.94-.86-1.56-2.67.52-2.85-2.65l-45.69.24v-2.53s.44,1.24.44,1.24l48.54.09ZM261.74,13.77c0-.37,1.06-.3,1.24-.19.87.54,2.05,17.92,3,20.26-1.56.38-1.4-.69-1.63-1.95-1.07-5.95-1.15-12.28-2.6-18.12ZM262.17,32.15h-28.33V13.55h25.37l2.96,18.6ZM219.86,17.12c.04-.72.12-1.24.45-1.87-2.21.52-2.73-.61-2.05-2.69.18-.56,2.95-1.11,3.53-1.11h9.51v21.14l-13.11-.84c-.31-2.77-.44-5.44-.02-8.22.08-.52,1.85.06,2.03-.86.1-.5-.42-4.24-.34-5.54ZM194.51,21.8c-.15-.75-.84-1.2-.84-1.28v-12.05c.81,0,4.45-.23,4.67.7l-.86,16.21c2.87,1.02.84-1.43,4.42-1.71,1.53-.12,5.67.12,7.13.45.34.08.11.77.89.87,1.87.25,5.68-1.16,4.86,2.24-.26,1.05-2.93-.22-2.08,2.37l1.69.42h-14.8l3.38-.42-.63-2.12.21,1.69c-3.24-.52-5.63,1.38-8.88.85-.1-.89,1.48-.19,1.69-.42.06-.07.08-1.51,0-1.82-.07-.29-2.18-1.31-2.12-2.41l2.54-.22c-2.19-.03-.97-1.83-1.28-3.37ZM206.35,16.93c.67,1.69.67,2.55,0,4.23-.08.21.26.74-.26.86-.4.09-2.91.05-3.07-.08-.19-.15.02-.63-.05-.78-.56-1.41-.83-2.92,0-4.23.65-1.03,1.56-1.03,2.77-.88,1.05.13.45.46.61.88ZM215.02,31.31c.26-.07.59-.88,1.05-.85v1.69s-24.1,0-24.1,0v-1.69c.44-.05.88.85,1.06.85,4.49,0,18.77.87,21.99,0ZM14.82,1.71h202.11c.12.12-.03,2.73.42,3.38h-23.26c-.15,0,.15-2.96,0-2.96H14.82v-.42ZM163.65,7.21h-1.27c.06-.6.12-2.96-.64-2.96h-12.47v-.42h42.28v.42h-27.27c-.75,0-.7,2.36-.64,2.96ZM138.28,7.21c-2.75,1.14-1.1-2.96-2.32-2.96h-23.47c-.15,0,.16,2.81,0,2.96h-1.27c.06-.6.12-2.96-.64-2.96h-12.05v-.42h50.32v.42h-9.94c-.75,0-.7,2.36-.64,2.96ZM7.42,16.51h7.19s.63-.59.63-.63V3.83h73.57v.42h-5.92v20.29h-.85V4.88s-.59-.63-.63-.63h-21.56s-.63.59-.63.63v25.79s.59.63.63.63h21.56c.19,0,.75-1.18,1.48-.84v1.69s-24.1,0-24.1,0V4.25h-20.08c-.75,0-.7,2.36-.64,2.96-3.19.73-.41-2.32-2.75-2.96l-19.27.19c-.55,2.69-1.7,7.63,2.57,6.58.76,2.33-2.21.48-2.93,1.3-.28.32.13,3.78-.03,4.62h-7.4c-.24,0-.65.71-.63,1.06.46,2.08-1.32,12.26-.03,13.13.82.56,2.49-.49,2.14,1.03-.92.02-2.11-.32-2.46.72l-.92,9,.4-23.91c-.09-.43.31-1.46.66-1.46ZM80.77,30.03c-2.78,0-4.76.74-4.69-2.75.06-2.52.84-1.32,2.58-2.11l-1.3-.44-1.24-19.22h4.65s0,15.64,0,15.64c0,.15-1.27-.48-.41,2.32l-1.28.42c.38.89,1.55.08,1.68.21.98.97-.18,3.37-.83,4.36-.24.37-.74.14-.85.51-.37,1.29,1.78.05,1.69,1.05ZM71.95,29.55c.45.43,2.7-.53,2.9.48h-14.38v-5.92c4.87.25,9.54-.9,14.38,0-.07,2.71-.77,3.5-3.39,3.81.32.38.36,1.5.48,1.62ZM68.78,16.07c.4-.09,2.91-.05,3.07.08.19.15-.02.62.05.78.67,1.69.67,2.55,0,4.23-.09.21.26.74-.26.86-.4.09-2.91.05-3.07-.08-.19-.15.02-.62-.05-.78-.67-1.69-.67-2.55,0-4.23.08-.21-.26-.74.26-.86ZM18.6,29.85c.27,3.26.55,1.77.04,5.5-.1.71.18,3.99-.02,3.99h-10.57c.52-1,.2-5.72.42-5.92.37-.34,2.44.9,2.58-1.48.16-2.93-2.18-1.54-2.57-1.9-.54-.5.86-10.25.42-11.84h9.72c.25,3.77-.33,7.92-.02,11.65ZM18.6,69.47c-.16.82-8.7,5.11-9.2,4.85-.2-.11-.23-1.55-2.2-.32l1.03-25.39c.6-.86,3.48-.14,4.6-.41.34-.08.13-.81.91-.88,1.8-.16,3.06,1.2,4.88.89-.56,1.7.98,2.99.89,4.44-.05.91-.77,1.5-.92,2.52-.6,4.26.51,9.88,0,14.3ZM7.65,42.96c.51-.36.4-2.35,1.04-2.35h9.94v5.92h-2.12c-.25-.24.52-3.24-.63-3.8-.08,1.1-.68,2.18-1.6,2.84-.3.21-.93.05-1.43.26-.14.06-.15.62-.43.69-.22.05-4.26.07-4.49.02-.32-.07-.28-.67-.37-.72-.34-.18-1.28.88-1.6-.77-.57-2.85.84-1.46,1.71-2.08ZM5.94,46.95c.77.16.79.83.86,1.46.72,6.41-1.19,13.94-.44,20.52-.52.69-.77,0-.84-.62-.84-6.57,1.25-14.58.43-21.36ZM18.83,109.09l-13.64-26.09.33-13.64c.74-.1.4.96.42,1.47.08,2.05-.87,6.2,2.11,4.02,1.13,2.1-1.63,1.56-2.04,2.81.29.92-.51,4.91-.41,5.15.02.05.6.03.89.59,3.87,7.41,7.61,14.89,11.53,22.28.78,1.34,1.22.49,2.29.02,1.07,2.01-.6,1.71-1.48,3.38ZM50.32,160.03c-.68.46-2.32,1.3-3.1,1.58-.41.15-.52.54-.9-.09-5.34-10.86-11.42-21.36-16.93-32.13-1.01-1.97-2.23-4.23-3.05-6.25-.26-.64-.27-1.46.52-.52l6.59,13.49c.64.46,2.9-1.49,2.92-.18,0,.52-2.04-.13-1.61,2.01l10.94,21.01c3.15-1.23,1.68-.16,2.95.68.44.29,3.16-.63,1.68.39ZM92.5,214.29c-8.56-18.67-16.18-37.78-24.73-56.46-1.55-1.75,1.15-3.18,2.01-2.22.73.81-1.1.98-1.25,1.51-.34,1.23,9.18,20.36,9.94,23.41,2.16,1.25.83,1.09,1.21,2.55.83,3.22,3.9,8.1,5.03,11.1l8.75,21.03c-1.21.23-.68-.32-.96-.92ZM118.85,249.68c.02,1.19-5.52,3.32-6.58,4.42l-3.77-6.79c-2.7-9.35-7.51-17.73-11.32-27.16-.25-.61.4-1.25-.75-1.13.41-.7,2.54-1.93,3.17-2.1.17-.05.86,2.45,2.75,1.27l-.35.77,17.26,27.77c-2.6,1.05-.42,1.95-.4,2.97ZM281.7,153.38c-.27.34-.64.62-1.11.75.06,0,.12,0,.19-.01l-23.48,14.15c-.42.14-.66.11-.83,0-.09.05-.19.1-.24.13-.21.14-.42.28-.62.44-.4.3-.79.61-1.2.89-.49.34-1.03.59-1.59.8.03.05.06.08.05.1-.01.12-1.67,1.22-2.01,1.45-7.11,4.86-15.6,8.56-22.72,13.55-1.21-2.45-.43-3.03-2.87-1.6-3.99,2.33-.32,2.94-1.15,4.14-.12.17-1.36.03-1.7.27-5.18,3.52-11.31,6.9-17.11,10.31-1.85,1.09-3.64,2.69-5.51,3.8-.25.11-.64-3.93-4.17-1.22-1.61,1.23.35,2.15.16,3.75l-20.93,12.26c-.88-4.21-7.23-1.08-3.6,1.91l-16.9,9.93c.19-3.41-4.8-1.72-4.67.18.06.83,1.19,1.77.67,2.38l-27.09,16.05c-.88.23-.64-.7-1.11-1.41-6.13-9.25-10.96-19.27-16.67-28.57-.53-.86-3.54-5.01-4.2-4.97-.64.04-4.08,2.73-5.07,3.26-.42.22-.32.69-.86-.02l-14.57-33.19c3.13-1.27,2.69-1.78,1.26-4.43-.64-.15-.27.55-.71.85-.52.35-1.27.5-1.82.84l-9.73-22.2c-.12-.37,1.7-.63,2.11-.2.42-.6-.84-4.07-1.36-4.55-.5-.45-1.48-.29-1.91-.63-.29-.23-1.19-3.24-1.79-2.85.05.33,0,.64-.32.82-5.39,2.98-11.55,4.77-16.81,8.05-1.43-4.42-2.08-1.42-3.34-1.71-.46-.11-4.01-7.04-4.6-8.14-.33-.61-.6-1.32-1.09-2.23-1.41-2.67-2.81-5.35-4.28-7.99.23-.7,2.02-.97,2.09-1.07.33-.47-1.44-3.6-1.95-3.76-.89-.26-2.24,1.13-2.68.81-.34-.25-3.54-7.19-3.63-7.6-.13-.62.33-1.62.24-1.7-.09-.09-.86.23-1.31-.26-.26-.29-3.09-5.81-3.46-6.63-.58-1.28-.31-.86-1.1-2.24-.59-1.03-3.71-7.15-3.38-7.71.08-.14,1.6-.62,1.6-1.12,0-.08-.73-.78-.92-1.19-.22-.47-.29-1.49-.34-1.55-.43-.39-2.5.68-2.9.38-.33-.25-1.22-3.49-1.56-4.16-2.22-4.42-8.75-13.54-9.71-18.19-.16-.79-.42-4.26-.12-4.61.09-.1,2.01-.63,2.54-.95.37-.23.45-.67.89-.92,1.8-1.02,9.65-4.22,10.17-5.51.23-.56-.13-.78-.13-.93v-15.01l2.96.42c.46-3.19-.34-2.01-1.72-3.13-.25-.21-1.24-1.57-1.24-1.73v-15.43c.32-.04,3.56.44,3.38-.21-.85-1.37-3.06-3.09-3.36-4.67-.03-.17-.06-.36-.08-.55-.08-.24-.14-.49-.14-.74-.02-.93.04-1.86.12-2.78.16-3.17.59-6.78.02-8.53-.39-1.18-2.71-.57-3.75-.69.09-.57-.13-2.84,0-2.96.49-.47,3,1.26,3-1.9s-2.51-1.43-3-1.9c-.11-.11-.08-2.73,0-3.17.39-2.12,4.02-.45,5.5-1.05v.06c.14-.02.28-.02.42-.01v-.05h9.51s.05.04.11.09c.17-.03.34-.05.53-.05.15,0,.28.02.42.04v-.07c0-.08,1.39.06,1.69,0-.05.43-.08.8-.08,1.13.26.43.39.93.38,1.44.5.55,1.5.51,3.08.39v1.27c-1.77-.95-3.45-.17-3.33,1.92.02.3.71,2.23.81,2.3.1.08,1.83-.77,2.52-.42v.38c.21-.19.44-.34.69-.44l.15-7.98h8.88v.06c.13-.02.28-.04.42-.04h0c3.03-.39,5.12,1.06,8.03.83v21.14h-.06c0,.14,0,.28-.03.42h.1l-.23,5.92h7.84s-.34.11-.34.11c.12-.02.24-.04.36-.04,2.59,0,5.18-.41,7.76-.26,4.42-.28,9.02-.22,13.12-.26,0-.08,0-.15,0-.23,0-.07,0-.14,0-.21-.78-1.53-1.43-5.61-1.03-7.29.2-.84.39.62.39-2.16,0-5.72.06-11.44.02-17.15h2.54v.59c.13-.09.27-.17.42-.23v-.36c0-.09,1.39-.85,1.48-.85h9.51v.24c.14-.04.28-.07.42-.09v-.15h10.36s.63.59.63.63v7.36c.68-.08,1.37-.16,2.05-.19.37-.02.73-.01,1.1,0,.21-.05.42-.11.65-.2v.24c.13.01.26.03.39.05.01,0,.02,0,.03-.01v-7.88h10.99v.16c.14-.02.28-.03.42-.04v-.13h9.73c-.26,1.64.64,3.27.47,4.89-.09.84-.95.55-.89.81.1.46.76.93.86,2.11.01.12.01.24.02.36.13,0,.26,0,.39,0v-.13c.37-.07,1.25-.06,1.87.12.37,0,.75,0,1.12,0,.11-.71.36-1.37.39-2.05.04-.82-.76-6.11.63-6.11h9.09v.42c.14-.02.28-.04.42-.04v-.38h10.36s.63.59.63.63v6.76c.45.1.9.2,1.37.3.8-.03,1.6-.06,2.39-.11.35-.15.66-.29.88-.41v.36c.14,0,.28-.01.42-.02v-6.89s.59-.63.63-.63h10.36v.16c.14-.02.28-.02.42-.02v-.14c3.44.13,6.65-.33,9.95.54.43,0,.86.1,1.23.31.09.05.16.11.23.17v-.18h1.27s0,26.63,0,26.63h-.2c.06.2.08.41.08.62.22.25.16.61.31.6,11.18-.7,22.82-.44,33.85.03,4.3.18,8.58.62,12.9.45l-.42,2.95c1.07-.17,4.33.43,4.89-.39.42-.62.06-2.56.18-2.56h21.99c.08,0,.08,1.69,0,1.69h-.32c.08.13.15.26.21.4.1,0,.21.01.32.02.64.06,1.73.69,2.68.49.06.31.49.84.49.99v9.51h-.39c.08.13.14.27.19.43h1.46s.43,22.4.43,22.4h-.34c-.02.12-.03.25-.07.37.97-.16,1.92-.53,2.9-.32l.27.77,4.01,28.56c-3.41.21-1.77.87-2.55,3.17,3.99.08,3.34,1.9,3.82,5.31,1.06,7.38,1.91,15.21,2.76,22.65.07.64.61,1.23.61,1.84,0,.3-2.05.4-2.55.64.34,3.98,1.65,2.26,2.9,3.02.37.22,1.09,5.73,1.48,8.87.04.1.09.2.12.31.03.21.05.42.07.63,0,.01,0,.02,0,.04,0,0,0,0,0,0,0,.01,0,.03,0,.04.1.48.27.94.44,1.41.21.61.19,1.25.22,1.88.01.04.02.08.03.12.02.07.02.14.03.21.46,1.14.13,2.61-1,3.24Z" fill="#aaa"/><path d="M161.11,33h-.04s.04.08.05.12c.91.4,1.56.31,2.55.48.07.01.13.01.19,0,.07-.03.13-.05.21-.07.14-.08.28-.16.4-.24.17-.1.34-.2.5-.3h-.06c1.62-4.11-4.79-5.01-3.81,0Z" fill="#aaa"/><path d="M202.97,21.16l.42-.42s.05.5-.42.42Z" fill="#aaa"/><path d="M71.9,21.16c-.47.08-.4-.4-.42-.42.02.02.5-.05.42.42Z" fill="#aaa"/><path d="M68.51,21.16c-.08-.47.4-.4.42-.42l-.42.42Z" fill="#aaa"/><path d="M205.93,20.74c-.14-.13-.33-.26-.42-.42.14.14.3.27.42.42Z" fill="#aaa"/><path d="M71.47,17.35s-.05-.5.42-.42l-.42.42Z" fill="#aaa"/><path d="M203.39,20.74c.13-.15.28-.28.42-.42-.07.14-.29.29-.42.42Z" fill="#aaa"/><path d="M71.47,20.74c-.14-.13-.33-.26-.42-.42.13.15.3.27.42.42Z" fill="#aaa"/><path d="M205.09,18.62c0,.28-.04.58,0,.85-.11-.04-.78-.04-.85,0,.04-.22.03-.62,0-.85.1.04.74.04.85,0Z" fill="#aaa"/><path d="M205.51,20.31c-.14-.27-.34-.24-.42-.85.55.21.28.7.42.85Z" fill="#aaa"/><path d="M69.78,18.62c-.51-.26-.36-.78-.42-.85.08.16.45.15.42.85Z" fill="#aaa"/><path d="M203.82,17.78c-.14-.14-.3-.27-.42-.42.13.13.35.29.42.42Z" fill="#aaa"/><path d="M203.39,17.35s-.5.05-.42-.42c.47-.08.4.4.42.42Z" fill="#aaa"/><path d="M203.82,20.31c.09-.09.11-.68.42-.85-.07.44-.27.56-.42.85Z" fill="#aaa"/><path d="M71.05,20.31c-.14-.27-.33-.24-.42-.85.51,0,.31.73.42.85Z" fill="#aaa"/><path d="M205.93,17.35c-.13.15-.28.28-.42.42.02-.13-.29-.47-.41-.64.25-.43.58.22.83.22Z" fill="#aaa"/><path d="M205.93,17.35s-.06-.5.42-.42c.07.47-.4.4-.42.42Z" fill="#aaa"/><path d="M71.05,17.78c.08-.14.29-.29.42-.42-.06.18-.42.37-.42.42Z" fill="#aaa"/><path d="M206.35,21.16c-.47.08-.4-.4-.42-.42.02.02.5-.05.42.42Z" fill="#aaa"/><path d="M70.63,18.62c-.04.23-.03.62,0,.85-.88-.23-.85.45-1.27.85.04-.1.42-1.6.42-1.69.15.08.58-.05.85,0Z" fill="#aaa"/><path d="M205.09,18.62c0-.37.4-.72.42-.85-.08.08.09.65-.42.85Z" fill="#aaa"/><path d="M204.24,18.62c-.51-.2-.35-.77-.42-.85.14.27.33.23.42.85Z" fill="#aaa"/><path d="M70.63,18.62c.09-.58.27-.57.42-.85-.03.31.17.82.41,1.06-.23.4-.5-.16-.83-.22Z" fill="#aaa"/><path d="M68.94,20.74c.14-.14.28-.29.42-.42-.06.15-.3.29-.42.42Z" fill="#aaa"/><path d="M69.36,17.78c-.14-.14-.3-.27-.42-.42.13.12.36.3.42.42Z" fill="#aaa"/><path d="M68.94,17.35s-.5.05-.42-.42c.47-.07.4.4.42.42Z" fill="#aaa"/><path d="M130.25,183.93c-.17.25-.25.63-.42.85-.42-.02-.85.02-1.27,0,.27-.27.64-.53.85-.85.28.03.57-.02.85,0Z" fill="#aaa"/><path d="M128.13,185.19l.42-.42-.42.42Z" fill="#aaa"/><path d="M143.35,185.62c-.22.27-.65-.58-.42-.85s.65.58.42.85Z" fill="#aaa"/><path d="M131.94,185.62c.11.45-.67.57-.85.42-.09-.08.09-.76,0-.85.14.04.31-.05.42,0,.05.2.19.41.42.42Z" fill="#aaa"/><path d="M142.09,186.04c-.09-.06-.49.05-.42-.42.39-.04.36.14.42.42Z" fill="#aaa"/><path d="M141.24,186.88c-.45.11-.57-.67-.42-.85.23-.28.46.35.42.85Z" fill="#aaa"/><path d="M142.93,186.46c-.06.28-.04.94,0,1.27-.32,0-.59-.71-.85-.85.03-.23.04-.64,0-.85.18.12.7.41.85.42Z" fill="#aaa"/><path d="M139.97,187.31c-.09-.06-.49.05-.42-.42l.42.42Z" fill="#aaa"/><path d="M142.09,186.88c-.03.23-.35.57-.42.85-.26-.05-.66.08-.85,0,0-.2.41-.61.42-.85.25.05.69-.08.85,0Z" fill="#aaa"/><path d="M140.82,187.73c0,.52.57,1.07.42,1.69-.6-.14-.8-.89-1.27-1.27-.04-.27.02-.57,0-.85.24.16.58.31.85.42Z" fill="#aaa"/><path d="M138.28,188.58c-.22.27-.65-.58-.42-.85s.65.58.42.85Z" fill="#aaa"/><path d="M139.97,188.15c.05.41-.04.85,0,1.27-.21-.22-.64-.78-.85-.85.04-.17.04-.66,0-.85.25.17.63.25.85.42Z" fill="#aaa"/><path d="M234.94,134.03c-2.39.11-1.64,1.8-2.04,3.08-.3.96-3.26,3.21-4.14,2.66l-9.78-17.21c-1.21-1.31-2.02-3.18-2.71-4.33l-3.15-4.91c.04,1.37-1,.89-1.17,1.01-6.22,4.52-12.41,7.09-18.55,11.6-3.11,2.28-5.75,1.33-2.2,5.7.79.98,4.24,3.07,1.62,3.67v.41c.29-.03.68.04.84.3,2.67,4.04,5.29,9.16,7.54,13.07.54.94,3.38,5.53,3.01,6.06-2.16.88-4.18,2.19-6.19,3.37-3.29,1.94-7.13,4.21-10.38,6.08-1.18.68-6.86,4.25-7.49,4.34-1.08.16-1.74-3.05-4.04.17l-.63-.84c-.33,1.16,1.03,2.7.42,3.17l-20.51,11.97c-.49-.2-.69-.66-.98-1.05-2.53-3.55-7.72-14.99-10.01-17.05-.67-.6-1.63-.21-2.3-1.09-.92-1.21.32-2.34-.23-3.55-.2-.43-2.48-2.85-2.98-2.97-.2-.05-.37.85-.88,1.21-6.01,4.22-13.86,7.56-20.21,11.44l-11.04-17.71c-.25,0-1.84,2-1.9,2.32-.03.18.58.17.8.54.73,1.21,4.37,6.63,4.54,7.26.28,1.06-1.08,1.16-.38,2.85.53,1.26,1.44,1.7,2.63.97,4.77,9.1,10.33,17.75,15.54,26.61,1.34,1.43,2.79,2.77,4.57,3.51.24.05.47.11.7.17-.07-.15-.11-.25-.08-.27,3.09.68,4.09-.56,6.34-1.51.16-.07.35-.04.53,0,.36-.23.73-.45,1.1-.65.02,0,.03-.02.05-.02.17-.25.4-.52.71-.72,3.43-2.29,7.73-4.65,11.26-6.51,1.09-.58,2.7-.67,2.79-.79.29-.37-.07-.88.99-1.75.98-.8,2.64-.95,3.19-1.3,17.19-10.66,35.48-20.78,52.96-30.98.97-.57,1.86-1.95,3.25-2.22.16-.03.57.29.96.66.22-.17.47-.3.73-.38-.24-.39-.47-.78-.72-1.17,4.13-2.22,8.44-4.37,12.43-6.84.61-.38,1.76-1.19,2.46-1.65.58-.39,2.06-2.32,2.88-1.91.66.33.65,1.67,1.88,1.94,1.75.39.47-1.43,1.91-1.28v-.41c-2.96.38-.37-5.25-3.97-5.08ZM143.78,186.46c-.16.18-.12,1.26-.85,1.27.03.25.61.73.42,1.27-.16.17-1.18-.47-1.27-.42-.06.04.22.21-.85.85-.32.19-.61.29-.85.42-1.02.58-1.21.37-1.27.42-.08.06.29.2-.85.85-1.01.58-1.2.38-1.27.42-.04.03.1.6-.28.86-.77.54-2.19.4-3.1.4l.84-1.68c-.39-.08-.99,0-.84.42.06.16.68-.21,0,.42-1.2,1.12-1.56-.93-2.11-1.69-.27-.37-.37.79-.85-1.27-.11-.47-.45-1.14-.22-1.68,1.12.29.93,1.09,1.06,1.26.12.16,1.11.57.85.84-.63-.23-1.3.32-.85.85.06.07,1.23-.33,1.69-.42-.06-1.83,2.41-.76,2.54-.85.05-.04-.08-.54.07-.74.16-.17.74.34.78.32.08-.05.99-.66,1.27-.85.82-.54.78-.38.85-.42.05-.04-.08-.53.07-.74.16-.17.74.34.77.31.06-.04.01-.74.4-1.03.31-.23.83.21.87.18,1.09-1.02.45-.2.85-.42.04-.03-.06-.62.08-.7.24-.13.98.19,1.19-.15.11-.17-.23-.87.21-.84,2.07,1.96.84,1.27.21,1.69-.06.04-.39.7-.42.85.79.08,2.09-1.09,2.54,1.05-.91.99-1.27-1.52-1.69-1.05ZM135.74,174.63l2.12,3.59c.02.36-.57.25-.84.21.28.39.98.25.84.84-1.04-.02-1.97,1.01-2.77,1.26-.98.3-.51-.7-.61-1.25-.16.24-.54.92-.84.84l-2.12-3.8c2.44.77,2.57.76,2.96,2.96.26-.4.81-1.32.85-1.69.03-.35-1.09-2.51.42-2.96ZM145.04,186.04c.85-1.04-.39-.76-.45-1.1-.08-.55.46-1.37.47-2.08.02-3.26-6.45-9.18-5.94-13.3l-.42,1.69c-1.01-.12-.25-1.45-1.1-1.66-.97-.24-2.43.67-3.55.4l1.69.63c-1.11,1.03-2.25,1.46-2.64,3.07-.78.37-5.61,2.01-5.79,2.26-.09.12.32,2.39.39,2.49.04.06.21-.26.85.85.33.58.36,1.16.42,1.27.04.07,1.35-.29.42.85,1.03-.21.73.67.85.85.78,1.13.37,1.21.42,1.27.06.06.58-.11.76.09.06.06-.09.99.08,1.6.15.06.28.35.42.42.34.18,1.07-.42.84.63-1.93,1.76-1.48.07-1.69-.21-.18-.24-.89-.33-.85-.84.26.02.78-.06.85,0-.35-.09-.46-.38-1.27-.42-.48.59-.76,1.47-1.69,1.27-.06-.26.07-.66,0-.84-.17-.42-.39-1.21-.42-1.27-.04-.06-.3.4-.85-.85-.82-1.87.19-1.08.42-1.69-.5-.2-1.04.49-.85-.85-.21-.03-.68-.55-.82-.4-.19.22.29,1.01-.45.82-.08-.37.11-1.01,0-1.27-.22-.52-1.01-.78-1.25-1.17-.42-.68-2.95-4.9-2.79-5.18,2.03-1.18,3.97-2.64,6.04-3.75.73-.39,2.37-1.42,2.67-1.56.9-.4,1.57.36,2.02.17.15-.07,2.51-1.71,2.62-1.83.58-.65.2-1.56.68-1.95.44-.35,2.42-1.05,3.12-1.22.13.75-1.31,1.39-1.27,1.47.38.74,1.77.8,2.03,1.17.59.86-.9,1.44,1.78.74-1.52,1.86-.44.87.03,1.55.29.42-.03,1.09.12,1.3.78,1.12,2.28,2.23,3.25,3.68,2.44,3.68,4.74,7.76,6.75,11.63-2.37.77-3.21,2.09-5.92,1.27ZM216.07,126.43c.42.52-.86,1.67-1.26,1.27-.65-.65,1.19-1.35,1.26-1.27ZM202.11,130.03c.04-.22.78-.17.86-.5.23-1.03-.29-2.37.38-3.48l-1.02-.89,9.32-5.89c.29.02,2.99,4.43,3.09,4.93.08.39-.58,3.96-.78,4.34.28-.06,1.03-.08,1.21.07.19.24,0,.61.06.78.21.57.51.39,0,1.27.25-.05,1.04-.06,1.27,0,.67-2.28,1.18-.86,1.69,0,.19.32.28.6.42.85.41.74,1.81.86-.85,1.27-1.18,1.27-2.91,1.84-1.69.42-1.14.06-1.71-.57-.42-1.27-.39.07-.86-.04-1.27,0-.06-.05.46-.81.43-.84-.07-.07-1.61.28-.42-1.27-.42.05-.86-.01-1.28,0l.43-.84c-2.17-.15.07-.98.42-1.69-.66-.63-4.85-.63-5.03-.39-.26.33-.02,1.41-.91,2.27-1.03,1-2.82.95-4.09,1.4-.51.18-2.22,1.91-1.82-.53ZM208.53,136.91c-.14-.21-.02-.73-.07-.76-.04-.03-.67.46-.79.37-.26-.2-1.21-3.18-1.75-3.75,2.51.15,2.55,1.2,2.54,3.38l.43-2.11,2.96.85c-.55.45-2.8,2.44-3.32,2.02ZM210.79,136.58v-.42c.27.14.27.28,0,.42ZM210.46,148.92c-.79.49-3.88,2.74-4.2,1.48-1.02-3.24-5.73-8.37-6.49-11.28-.45-1.74,1.24-4.47-1.01-4.9-.53-.1-2.05,1.71-2.54-.83-.31-1.62.96-4.91-1.28-3.58.16-.53,2.57-1.97,2.74-1.97.15,0,2.56,1.12,2.65,1.23.66.73.08,2.19.2,2.96.07.41,1.19,1.55.74,2.01-.13.13-1.73-.36-1.26.63.48,1.03,2.26,1.1,3.14,1.93,1.35,1.27,3.36,6.06,4.7,7.98.73,1.05,2.45,2.14,3.14,3.63.18.86-.21.51-.54.71ZM219.66,140.81c-.28.08.08-.97-1.05-.85,0,.24.6.78.41,1.25-.25.11-.71-.06-.83.01-1.08.67-1.21.38-1.27.42-.06.04-.71.71-.85.85-.07.07.13.65-.06.81-.24.21-1.14-.43-1.21-.39-.04.02.08.91-.2.85-.14-.26-.44-.29-.64-.43.3,1-.19.8.85,1.69-.05-.25.02-.57,0-.85,2.74,2.38.55,1.19.42,1.27-.03.02.1.52-.13.72-.36.32-1.03.05-1.14.13-.1.07.23.87-.21.85-1.06-.59-1.57-2.26-.21-1.69.02-.21.59-.69.42-.84-.26-.07-.67.07-.85,0-.03.18.04.36-.22.42-.42.08-.71-.22-1.05-.42.08.37-.04.86,0,1.27-.8.58-1.49-1.36-1.24-1.67.12-.15.7.06.82-.02.1-.06.15-.43.42-.58.35-.19.81.18.85.16.06-.04.73-.73.85-.85.07-.08-.12-.55.07-.75.13-.14.74.35.78.33.15-.09-.08-.21,1.27-.85.17-.08.81-.4.85-.42.4-.28-.74-.23,1.27-.85.2-.06.41-.38.85-.42-.02-.59.09-1.2.42-1.69-.22.06-.58-.03-.85,0-.06-.04.45-.8.43-.84-.03-.05-.61.07-.7-.08-.64-1.1,1.68-2.16,2.64-2.42.95-.26.47.37.59.81.03.12.68.28.22.85-.67.82-1.42.68-.65-.42-1.73-.69-1.01-.34-1.69.85.25-.05.57.02.85,0-.15.26-.25.61-.43.84,1.52-.42,1.51,1.07,2.11,2.11-.76-.12-1.45.72-1.91.85Z" fill="#aaa"/><path d="M142.09,188.58c-.2.24-.58-.39-.42-.85.45-.11.57.67.42.85Z" fill="#aaa"/><path d="M131.51,188.58c.27.22-.58.65-.85.42s.58-.65.85-.42Z" fill="#aaa"/><path d="M137.01,189l-.42-.42.42.42Z" fill="#aaa"/><path d="M139.13,188.58c-.04.17-.32.75-.42.85s-1.21-.45-.85,1.27c-1-.58-1.13,0-1.27,0-1.21-.08-1.34.05-2.54-.42.94.24,1.4-.15,2.11-.42,1.28-.49.78-.81.85-.85.06-.03,1.2-.41,1.27-.42.21-.03.69-.05.85,0Z" fill="#aaa"/><path d="M213.54,128.97c-.04-.39.13-.36.42-.42-.08.15.04.48-.42.42Z" fill="#aaa"/><path d="M136.17,189.84c-.22.27-.65-.58-.42-.85s.65.58.42.85Z" fill="#aaa"/><path d="M215.23,129.39c.36.31-.58.39-.85.42.14-.19.33-.85.85-.42Z" fill="#aaa"/><path d="M134.05,190.27c-.28-.11-.83.17-.85-.42.38-.08.79-.09,1.07-.41l-.22.84Z" fill="#aaa"/><path d="M139.13,190.27c-.22.27-.65-.58-.42-.85s.65.58.42.85Z" fill="#aaa"/><path d="M218.19,130.66c.15.43-.7.56-.85.42-.74-.7.61-1.11.85-.42Z" fill="#aaa"/><path d="M214.81,131.08c-.04-.39.13-.36.42-.42-.07.12.05.49-.42.42Z" fill="#aaa"/><path d="M140.39,189.84l-.42-.42s.5-.05.42.42Z" fill="#aaa"/><path d="M217.35,131.08c.16.17-.49,1.13.85.85-.16.25-.26.67-.42.85-.39.06-.93-.09-1.27,0,.62-.91,0-1.18,0-1.27.03-.27-.06-.64,0-.85.17.04.75.33.85.42Z" fill="#aaa"/><path d="M137.01,191.54c-.22.27-.65-.58-.42-.85s.65.58.42.85Z" fill="#aaa"/><path d="M216.5,131.5c.04.65-.65.32-.85.42.05,0,.09-.65.85-.42Z" fill="#aaa"/><path d="M138.28,191.11c-.17.17-.36-.11-.42-.42.13.07.66.18.42.42Z" fill="#aaa"/><path d="M218.19,131.92c.07-.1-.04-.49.42-.42.04.39-.13.36-.42.42Z" fill="#aaa"/><path d="M133.63,191.96c-.49.21-.49-.64,0-.42.02,0,.02.41,0,.42Z" fill="#aaa"/><path d="M139.13,187.73c-.09-.06-.49.05-.42-.42.39-.04.36.14.42.42Z" fill="#aaa"/><path d="M216.08,133.19c.06-.06-.14-.28.42-.42-.07.1.11.39-.42.42Z" fill="#aaa"/><path d="M220.73,136.15c.06-.08-.06-.49.42-.42l-.42.42Z" fill="#aaa"/><path d="M127.71,183.93l.42-.42c-.06.09.05.49-.42.42Z" fill="#aaa"/><path d="M218.62,137.42c-.04-.39.13-.36.42-.42l-.42.42Z" fill="#aaa"/><path d="M219.04,138.27c.09-.13-.13-.27.42-.42-.07.1.13.27-.42.42Z" fill="#aaa"/><path d="M218.19,141.23c-.7.74-1.11-.61-.42-.85.43-.15.56.7.42.85Z" fill="#aaa"/><path d="M216.92,141.65l-.42-.42.42.42Z" fill="#aaa"/><path d="M216.08,142.49c-.22.27-.65-.58-.42-.85s.65.58.42.85Z" fill="#aaa"/><path d="M214.81,142.92l-.42-.42.42.42Z" fill="#aaa"/><path d="M213.96,143.34c-.08-.06-.49.05-.42-.42.42-.05.35.18.42.42Z" fill="#aaa"/><path d="M213.12,144.61c-.39-.16-.71-.5-.42-.85.21-.25.51.32.42.85Z" fill="#aaa"/><path d="M211.85,144.61c-.11-.07-.49.05-.42-.42.39-.04.36.13.42.42Z" fill="#aaa"/><path d="M215.23,145.45c-.47.07-.4-.4-.42-.42,0,.03.5-.06.42.42Z" fill="#aaa"/><path d="M213.96,146.3c-.23.27-.47-.34-.42-.85.39.16.71.5.42.85Z" fill="#aaa"/><path d="M126.02,179.28c-.06-.04.11-1.09-.84-.85.92-1.47,1.76-1.25,1.69.43-.01.28.02.57,0,.85-.22-.05-.66-.28-.85-.42Z" fill="#aaa"/><path d="M136.17,178.01c-.23-.11-.89.23-.85-.42.76-.23.79.42.85.42Z" fill="#aaa"/><path d="M137.01,178.43c-.56-.09-.59-.31-.85-.42.16,0,.69-.59.84-.42.11.12-.09.71,0,.85Z" fill="#aaa"/><path d="M127.71,178.43c.27.22-.58.65-.85.42s.58-.65.85-.42Z" fill="#aaa"/><path d="M126.02,179.28c.27.22-.58.65-.85.42s.58-.65.85-.42Z" fill="#aaa"/><path d="M128.55,179.28c.02.58-.45.38-.85.42.25-.29.09-.59.85-.42Z" fill="#aaa"/><path d="M127.71,179.7c-.17.19-.28.59-.42.85-.26-.05-.58.04-.85,0,.04-.25.4-.62.42-.85.2.05.61.03.85,0Z" fill="#aaa"/><path d="M128.13,180.97c-.06.24.08.72,0,.85-.28-.03-.58-.32-.85-.42.08-.22-.09-.68,0-.85.24.05.56.35.85.42Z" fill="#aaa"/><path d="M128.98,180.54c.24.23-.45.58-.85.42.06-.42.7-.56.85-.42Z" fill="#aaa"/><path d="M128.98,181.81c.05-.06-.14-.31.42-.42-.07.08.14.25-.42.42Z" fill="#aaa"/><path d="M128.98,181.81c-.16.19-.26.59-.42.85-.4.06-.86-.04-1.27,0,.25-.26.68-.6.85-.85.22.02.68.05.85,0Z" fill="#aaa"/><path d="M129.82,182.66l.42-.42-.42.42Z" fill="#aaa"/><path d="M126.86,183.08c-.07-.47.4-.4.42-.42l-.42.42Z" fill="#aaa"/><path d="M129.82,182.66c-.28.32-.26,1.02-.42,1.27-.3-.04-.81-.5-1.27-.42.17-.26.26-.58.42-.85.41-.06.86.04,1.27,0Z" fill="#aaa"/><path d="M130.25,183.93c.06-.09-.05-.49.42-.42l-.42.42Z" fill="#aaa"/><path d="M54.52,124.01c-.17.05-.34.1-.51.16-.06.03-.11.05-.17.08-.16.08-.32.17-.48.27-.16.1-.32.21-.48.32-.15.15-.21.19-.21.17-.14.13-.27.27-.41.4,0,.01-.02.02-.02.03,0,.04,0,.08,0,.12.03.15.06.3.1.45.04.16.09.32.14.48.01.03.04.11.07.19.04.09.1.21.12.25.07.13.14.25.22.38.04.07.09.14.14.21.01.02.03.03.04.05.1.12.21.23.33.33.02.01.03.03.05.04.24.1.47.19.68.27,0,0,0,0,0,0,.12,0,.24,0,.37-.01,0,0,0,0,.02,0,.21-.04.43-.09.64-.15.18-.05.36-.1.54-.16.07-.02.32-.12.44-.17.04-.02.08-.04.09-.04,0,0,0,0,0,0,.35-2.11-.44-2.36-1.72-3.66Z" fill="#aaa"/><path d="M40.33,95.25s-.02,0-.03,0c-.27-.07-.53-.18-.78-.3-.12-.04-.23-.08-.36-.1-.25-.03-.49-.05-.74-.04-.08.01-.17.03-.25.04-.15.19-.33.36-.55.48-.04.04-.08.08-.12.12-.13.2-.27.38-.45.54-.07.23-.16.43-.27.64.02.34.05.68.08,1.01.04.15.1.29.15.43.08.1.16.2.24.31.09.12.17.24.25.36.14.16.29.32.46.46.06.04.13.07.19.11,1.84-.21,3.75-1,2.67-3.31-.15-.32-.31-.55-.49-.75Z" fill="#aaa"/><path d="M252.82,99.81s-.07-.02-.11-.03c0,0,0,0,0,0-.32.01-.64-.04-.97-.03-.14,0-.41,0-.54.04l.31-.04c-.12.02-.23.04-.35.07-.07.02-.23.04-.4.08l-.65.3h0c-.1.05-.21.11-.31.17-.01,0-.04.02-.07.04-.01.01-.06.05-.11.09,0,0,0,.01,0,.02,0,.04-.03.13-.04.2,0,.03,0,.06,0,.09,0,.17,0,.35,0,.52,0,.14.01.29.03.43,0,0,0,.02,0,.03.06.27.11.54.19.8,0,.02.02.05.03.08.03.06.06.13.08.16.04.08.09.15.14.22,0,0,.02.02.02.03.06.06.12.12.19.18.12.07.24.13.36.2.29.09.58.17.89.23.47.02,1.08.08,1.73-.47.07-.11.14-.22.2-.33.13-.23.29-.83.08-.09.04-.13.09-.26.14-.39-.11-.74-.27-1.47-.46-2.2-.12-.13-.24-.26-.37-.4Z" fill="#aaa"/><path d="M67.38,79.67s-.06,0-.1,0c-.04,0-.08.01-.1.02-.13.03-.26.07-.4.11-.05.12-.15.19-.38.12h0s-.08.02-.13.04c0,.89-.03,1.77,0,2.66.06.2.14.39.22.58.01.01.03.03.02.02.01.01.01.01.02.02.11.06.21.12.32.19.14.04.28.09.42.13.09.02.33.03.43.08.1,0,.2.01.3.02.01,0,.02,0,.03,0,.17-.09.32-.18.46-.26.11-.18.22-.37.31-.56.07-.13.13-.26.19-.4.18-.6.08-.18,0,0,0,0,0,0,0,0,0,.02,0,.03-.01.05.07-.22.18-.44.26-.65.16-.4.31-.78.41-1.2.01-.05.02-.11.03-.16-.22-.16-.44-.34-.66-.51-.39-.1-.78-.21-1.18-.29-.15,0-.3-.02-.46-.01Z" fill="#aaa"/><path d="M84.81,109.38c-.08-.04-.15-.07-.17-.08-.02,0-.05-.02-.07-.03-.06-.03-.12-.05-.18-.07-.08-.03-.53-.11-.62-.15-.01,0-.03,0-.04,0-.15-.01-.29-.02-.44-.02-.28,0-.56,0-.83.02-.08.07-.17.14-.25.22-.13.12-.25.25-.37.37-.13.29-.15.57-.34.69-.06.3-.14.59-.26.86.05.28.14.55.22.83.09.07.15.13.16.18.08.07.16.15.24.22.05.03.1.07.15.1.15.09.3.18.46.26.05.02.09.04.13.05.07.02.14.04.22.06.46-.09,1.05.06,1.59.01.09-.02.17-.03.26-.06.08-.02.15-.04.23-.07.05-.02.1-.04.14-.07.14-.09.32-.68.48-1.36.02-.16.05-.33.08-.49-.03-.16-.06-.32-.1-.48-.27-.28-.49-.61-.68-.99Z" fill="#aaa"/><path d="M65.77,147.14c.27.14.27.28,0,.42v-.42Z" fill="#aaa"/><path d="M242.08,27.92c.27.14.27.28,0,.42v-.42Z" fill="#aaa"/><path d="M206.14,18.62c.27.14.27.28,0,.42v-.42Z" fill="#aaa"/><path d="M194.36,90.61c.18.13.37.23.55.35,1.52.07,2.63-.04,3.82-1.31l.18.34c.06-.11.14-.21.21-.31-.71-1.51-1.51-3.29-1.67-3.4-.11-.08-2.37.53-2.56.69-.76.66-.87,2.25-.83,3.4.1.08.2.16.3.24Z" fill="#aaa"/><path d="M255.53,171.35l-19.42-33.64c-1.67.28-3.21,1.01-4.72,1.78-2.07,1.07-4.18,2.06-6.2,3.21-1.91,1.1-3.75,2.3-5.64,3.43-2.06,1.23-4.23,2.24-6.29,3.46-4.04,2.37-7.76,5.21-11.66,7.8-3.69,2.45-7.51,4.63-11.58,6.35-.18.45-.52.86-1.07,1.16-1.84.99-3.59,2.15-5.37,3.25-1.69,1.04-3.46,1.91-5.17,2.9-3.39,1.97-6.62,4.16-10.18,5.83-1.75.82-3.53,1.6-5.21,2.58-1.72,1-3.31,2.18-4.95,3.3-3.11,2.11-6.49,3.45-9.98,4.74-1.94,1.19-3.96,2.23-5.97,3.3-1.95,1.04-3.97,2.43-6.11,3.03-1.13.32-2.1.26-2.95-.06l-.11.06-.07-.14c-2.47-1.05-3.94-4.28-5.61-6.42-1.26-1.61-2.73-3.02-3.66-4.86-.29-.58-.55-1.2-.83-1.81-3.65-2.64-5.01-7.18-6.49-11.32-.12-.21-.24-.42-.36-.63-.37-.18-.71-.44-.96-.83-1.44-2.21-2.69-4.57-3.99-6.86-1.07-1.88-1.79-4.02-3.44-5.49-.59-.52-.81-1.12-.8-1.71l-32.01,15.31,7.01,14.66h-1.23c.12.2.22.42.29.67.14.55.22,1.1.28,1.65,0,0,0,0,0,0,.57.86.51,1.7.12,2.35,0,.49,0,.99,0,1.48,0,.1,0,.2,0,.31,1.87,2.68,2.82,5.98,3.84,9.05.47.46.77,1.1.78,1.79,0,.02,0,.05,0,.07.18.31.31.64.44.98.1.27.14.52.14.76.34.77.67,1.54,1.01,2.32.63,1.47,1.38,2.92,1.97,4.41.96,1.92,1.79,3.91,2.66,5.9,1.86,4.27,4.02,8.37,5.78,12.69,1.83,4.48,3.8,8.85,5.83,13.24.99,2.15,1.97,4.38,2.55,6.68.53,2.08.64,4.36,1.57,6.33.06.13.11.26.15.39.78.96,1.52,1.96,2.12,3.05,2.38-2.17,5.42-3.1,8.38-4.51,3.41-1.62,6.62-3.69,9.9-5.59.09-.14.19-.28.3-.4,2.84-3.23,6.8-5.14,10.62-7,1.24-1.16,2.75-2,4.19-2.88,1.71-1.04,3.59-1.91,5.05-3.29.7-.66,1.37-1.31,2.14-1.89.19-.14.38-.26.56-.36l-.12-.25,104.46-60.31Z" fill="#aaa"/><g id="line1"><rect id="pid-1" x="16.09" y="11.05" width="22.62" height="11.43" transform="translate(10.64 44.17) rotate(-90)"/><rect id="pid-2" x="31.59" y="11.72" width="22.62" height="9.36" transform="translate(26.5 59.31) rotate(-90)"/><rect id="pid-3" x="41.51" y="11.72" width="22.62" height="9.36" transform="translate(36.42 69.23) rotate(-90)"/><rect id="pid-4" x="81.38" y="11.52" width="22.62" height="10.5" transform="translate(75.93 109.46) rotate(-90)"/><rect id="pid-5" x="92.87" y="11.52" width="22.62" height="10.5" transform="translate(87.42 120.95) rotate(-90)"/><rect id="pid-6" x="108.18" y="11.52" width="22.62" height="10.5" transform="translate(102.72 136.26) rotate(-90)"/><rect id="pid-7" x="119.63" y="11.52" width="22.62" height="10.5" transform="translate(114.18 147.71) rotate(-90)"/><rect id="pid-8" x="132.46" y="11.52" width="22.62" height="10.5" transform="translate(127.01 160.54) rotate(-90)"/><rect id="pid-9" x="143.87" y="11.52" width="22.62" height="10.5" transform="translate(138.42 171.95) rotate(-90)"/><rect id="pid-10" x="159.7" y="11.52" width="22.62" height="10.5" transform="translate(154.25 187.78) rotate(-90)"/><rect id="pid-11" x="171.3" y="11.52" width="22.62" height="10.5" transform="translate(165.85 199.38) rotate(-90)"/></g><g id="linea2"><rect id="mid-46" x="5.71" y="73.86" width="20.75" height="9.14" transform="translate(-35.39 17.11) rotate(-28.42)"/><rect id="mid-47" x="11.11" y="82.82" width="20.75" height="9.14" transform="translate(-39 20.75) rotate(-28.42)"/><rect id="mid-48" x="15.95" y="91.77" width="20.75" height="9.14" transform="translate(-42.68 24.14) rotate(-28.42)"/><rect id="mid-49" x="21.56" y="103.16" width="20.75" height="9.14" transform="translate(-47.42 28.18) rotate(-28.42)"/><rect id="mid-50" x="26.24" y="111.8" width="20.75" height="9.14" transform="translate(-50.97 31.45) rotate(-28.42)"/><rect id="mid-51" x="31.08" y="120.76" width="20.75" height="9.14" transform="translate(-54.65 34.83) rotate(-28.42)"/><rect id="mid-52" x="37.78" y="133.14" width="20.75" height="9.14" transform="translate(-59.73 39.51) rotate(-28.42)"/><rect id="mid-53" x="43" y="142.79" width="20.75" height="9.14" transform="translate(-63.69 43.16) rotate(-28.42)"/></g><g id="linea3"><rect id="pid-13" x="159.82" y="67.06" width="22.12" height="9.14" transform="translate(355.26 53.31) rotate(151.58)"/><rect id="pid-14" x="164.84" y="76.34" width="22.12" height="9.14" transform="translate(369.11 68.36) rotate(151.58)"/><rect id="pid-15" x="170.05" y="85.97" width="22.12" height="9.14" transform="translate(383.48 83.97) rotate(151.58)"/><rect id="pid-16" x="179.54" y="94.25" width="22.12" height="9.14" transform="translate(405.25 95.03) rotate(151.58)"/><rect id="pid-17" x="184.04" y="103.53" width="22.12" height="9.14" transform="translate(418.13 110.33) rotate(151.58)"/><rect id="pid-18" x="189.06" y="112.81" width="22.12" height="9.14" transform="translate(431.98 125.38) rotate(151.58)"/><rect id="pid-19" x="218.51" y="114.7" width="22.12" height="9.14" transform="translate(488.24 114.91) rotate(151.58)"/><rect id="pid-20" x="213.49" y="105.42" width="22.12" height="9.14" transform="translate(474.38 99.86) rotate(151.58)"/><rect id="pid-21" x="202.34" y="87.63" width="22.12" height="9.14" transform="translate(444.96 71.72) rotate(151.58)"/><rect id="pid-22" x="197.43" y="78.35" width="22.12" height="9.14" transform="translate(431.32 56.62) rotate(151.58)"/><rect id="pid-23" x="192.19" y="68.88" width="22.12" height="9.14" transform="translate(416.97 41.31) rotate(151.58)"/></g><g id="linea4"><rect id="pid-24" x="111.86" y="154.16" width="22.12" height="9.14" transform="translate(-60.72 77.62) rotate(-28.42)"/><rect id="pid-25" x="106.84" y="144.87" width="22.12" height="9.14" transform="translate(-56.91 74.11) rotate(-28.42)"/><rect id="pid-26" x="101.82" y="135.59" width="22.12" height="9.14" transform="translate(-53.1 70.61) rotate(-28.42)"/><rect id="pid-27" x="95.95" y="124.75" width="22.12" height="9.14" transform="translate(-48.65 66.51) rotate(-28.42)"/><rect id="pid-28" x="90.93" y="115.47" width="22.12" height="9.14" transform="translate(-44.84 63) rotate(-28.42)"/><rect id="pid-29" x="86.11" y="106.56" width="22.12" height="9.14" transform="translate(-41.18 59.63) rotate(-28.42)"/><rect id="pid-30" x="80.04" y="95.35" width="22.12" height="9.14" transform="translate(-36.57 55.39) rotate(-28.42)"/><rect id="pid-31" x="75.24" y="86.48" width="22.12" height="9.14" transform="translate(-32.93 52.04) rotate(-28.42)"/><rect id="pid-32" x="70.53" y="77.09" width="22.12" height="9.14" transform="translate(-29.03 48.67) rotate(-28.42)"/><rect id="pid-33" x="123.02" y="125.56" width="22.12" height="9.14" transform="translate(-45.77 79.49) rotate(-28.42)"/><rect id="pid-34" x="116.4" y="113.34" width="22.12" height="9.14" transform="translate(-40.75 74.87) rotate(-28.42)"/><rect id="pid-35" x="111.38" y="104.06" width="22.12" height="9.14" transform="translate(-36.94 71.36) rotate(-28.42)"/><rect id="pid-36" x="106.36" y="94.78" width="22.12" height="9.14" transform="translate(-33.13 67.85) rotate(-28.42)"/><rect id="pid-37" x="95.98" y="78.74" width="22.12" height="9.14" transform="translate(129.37 -50.48) rotate(61.58)"/><rect id="pid-38" x="105.49" y="73.6" width="22.12" height="9.14" transform="translate(129.83 -61.54) rotate(61.58)"/></g><g id="linea5"><rect id="pid-39" x="244.29" y="37.59" width="22.12" height="9.14" transform="translate(510.69 84.32) rotate(180)"/><rect id="pid-40" x="252.03" y="55.41" width="22.12" height="9.14" transform="translate(203.11 323.08) rotate(-90)"/><rect id="pid-41" x="145.11" y="165.22" width="22.12" height="9.14" transform="translate(87.22 389.92) rotate(-120)"/><rect id="pid-42" x="154.59" y="159.74" width="22.12" height="9.14" transform="translate(106.19 389.92) rotate(-120)"/><rect id="pid-43" x="166.42" y="153.08" width="22.12" height="9.14" transform="translate(129.7 390.18) rotate(-120)"/><rect id="pid-44" x="175.14" y="147.88" width="22.12" height="9.14" transform="translate(147.28 389.92) rotate(-120)"/><rect id="pid-45" x="183.88" y="142.83" width="22.12" height="9.14" transform="translate(164.76 389.92) rotate(-120)"/></g></g></svg>