<?xml version="1.0" encoding="UTF-8"?><svg id="Capa_2" xmlns="http://www.w3.org/2000/svg" viewBox="0 0 348.88 271.36"><g id="layout2"><polygon points="163.65 72.89 163.65 72.79 163.35 72.79 163.35 72.89 146.68 72.89 146.68 73.5 188.51 73.5 188.51 72.89 163.65 72.89" fill="#aaa"/><path d="M348.86,194.24c-.06-1.62-.73-3.25-.31-4.99.05.06.1.09.15.13-.06-.33-.1-.68-.1-1.05V.17h-148.49c-.69.08-1.39.12-2.09.12-.75,0-1.48-.04-2.2-.12h-3.07v-.17c-.53.04-1.06.07-1.59.07-.08,0-.16-.01-.24-.01,0,.04,0,.08,0,.11l-129.08.05L0,124.56c.06.62.4,1.18.97,1.44,28,12.31,55.76,25.24,83.78,37.45,2.27.99,4.59,2.46,6.99,3.31.99.35,1.77.78,2.81.38l-.31.6,96.68,42.13,23.25,10.84c37.72,16.46,75.26,33.2,112.86,49.9l3.32.76c.95-3.41,1.53-6.95,2.46-10.37,3.95-14.55,8.23-29.48,12.07-44.11,2.01-7.67,4.26-14.64,3.98-22.65ZM66.96,47.59V2.29c.69.13,4.4-.17,4.55,0,.07.08-.09.7,0,.99.11.37.61.19.61.22v45.75h-6.67c.21-.53,1.52-1.07,1.52-1.67ZM57.87,12.6c.57-.06.24.64.21.97-.1,1.06-.22,1.85-.22,2.97,0-.02.27.09.31-.18.1-.61.15-4.99.45-4.98.4.11,1.9.87,1.97,1.13.09.35.09,3.49,0,3.81-.05.17-2.34,1.77-2.58,2.33-.29-.59-.15-1.46-.15-2.12-.75,1.31-1.38,9.29-1.64,11.5-.04.33.33.47-.31.3-.62-.16-4.7-1.87-4.71-2.26l6.67-13.48ZM60.59,19.86l-.59.23-3.04,6.44c.3-3.58-.28-7.79,3.63-9.39.56,1.38-.58,1.86-.61,1.97-.17.81.62.12.6.75ZM50.3,28.05c.47-.13.2.35.39.49.57.42,4.33,2.07,4.98,2.18.4.07.64-.15.98-.25l-.6,1.21.91-.3-.3,1.06c-.51.5-.16-.59-.45-.46-.97.44-.89,3.03-1.34,3.74-.32.51-1.83.37-1.55,1.72l-6.36-2.73,3.34-6.66ZM46.5,35.94c.05,0,.39.43.76.29l-.31.6,5.46,1.52c.36.42-2.73,5.86-2.74,6.95-.5.45-5.5-2.16-6.37-2.59.35-.91,2.83-6.77,3.2-6.78ZM42.03,44.49c.35-.56.28-.42.99-.38l-.6.6c2.17-.02,3.7,1.78,5.76,1.82.55.53-2.67,5.85-2.73,6.97-.86-.42-6.29-2.4-6.33-2.87,1.11-1.88,1.78-4.31,2.92-6.14ZM38.62,51.99c.21.16.45.25.65.41.48.38,1.66,1.17,2.16,1.37.6.25,2.9.44,3.07,1.11.34,1.33-3.14,4.89-3.01,6.49-.52.48-5.51-2.54-6.66-2.43,1.16-2.45,2.5-4.62,3.79-6.96ZM31.59,66.16c.95-1.81,1.72-4.11,2.64-5.99.18.02.52-.05.6,0,.03.02-.05.45.2.61.66.43,5.16,1.33,5.27,2.31-.22.85-2.58,6.41-2.93,6.49-.85.18-3.82-1.62-4.88-2.08-.44-.19-1.54-.31-1.6-.37-.46-.49.52-.62.7-.98ZM30.01,68.37c.18-.12.58-.05.81.07.05.03.07.38.31.48,1.22.53,4.71,1.08,4.86,2.37.16,1.4-2.18,4.93-2.82,6.41l-6.22-2.7c.78-.76,2.75-6.43,3.06-6.64ZM26.07,76.86c.29-.21,3.26.77,3.81.99.09.03.15.44.48.58.76.33,1.57.42,2.34.67-.92,2.42-2.78,4.21-3.34,6.82l-6.36-2.73c.69-2.3,1.95-4.37,3.06-6.33ZM20.07,89.18c.82-1.51,1.49-3.14,2.04-4.77.18,0,.41-.07.57.04.04.03-.03.42.26.54.41.17,1.12.15,1.59.33l-.31.6c1.52-.29,2.46,1.04,3.94.92.67.67-2.23,5.7-2.62,6.68-2.38-.14-4.17-2.11-6.47-2.45-.29-1.12.69-1.35.99-1.89ZM18.78,93.33c.42.1,3.97,1.34,4.15,1.47,1.57,1.25-.55,1.58-1.13,2.63l1.97-1.21c.23-.05.19.29.15.45-.76,2.41-2.99,5.45-3.85,7.96l-.99,1.29c-.19-1.71-.6-4.27-.48-5.92.02-.3.58-.56.47-.73-.02-.03-.53.08-.6-.2-.2-.74.02-2.89,0-3.89-.01-.48-.72-2.08.32-1.84ZM17.56,93.5l.6,3.18c-.25,3.43.59,6.68.31,10.15l-6.06-2.43,5.16-10.9ZM8.44,112.65c1.02-2.06,2-4.25,2.76-6.42,1.44,1.17,3.6,1.18,5.05,1.93.13.07.53.99,1.31.81.36.48-3.28,6.62-3.34,7.87-.49.35-5.45-2.6-6.53-2.71-.45-.79.58-1.11.76-1.47ZM2.74,123.65l3.91-8.34c.59-.1.16.76.3.91.1.11,2.72-.83,1.82.6,1.51-.03,2.72,1.11,4.25,1.22l-3.65,8.47c-.44.4-5.81-2.34-6.62-2.86ZM10.28,127.14c1.58-.27,2.84-1.23,4.54-.91.2-.19-.39-1.59-.6-1.9-.38-.54-1.66-.6-.16-1.14,4.17.34,1.14-1.73.82-3.86-.31-2.07,1.13-2.27,2.82-2.83.78-.26,2.05.36,1.54-1.2-.24-.74-1.07-1.12-1.39-1.8.7.04,3.29.17,3.3-.76,0-.19-1.88-2.95-1.79-3.3.31-1.14,2.1-.47,2.42-.62.62-.3.81-1.62,1.2-1.85.16-.09,1.49.52,1.45-1.46-.02-1.13-1.41-2.83-1.39-3.02.02-.24,1.71-3.81,1.99-4.37.31-.61,1.05-1.05,1.44-2.21.34-.99.08-1.74.15-1.8.94-.87,4.9.71,2.13-3.03,1.24.13,1.77.06,2.72-.62.04-.48-.63-.35-.92-.73-.64-.83-1.1-2.7-.22-3.43.56-.46,3.42-.31,3.56-.85.29-1.12-1.65-1.89-1.2-2.25.97-.08,2.11.16,2.72-.76-2.82-2.76-1.28-5.28,2.42-4.7.83-1.85-1.3-1.43-1.51-2.72.63-.13,2.4.28,2.75-.19.82-1.08-.26-.99-.58-1.53-1.59-2.71.72-3.99,3.28-3.74l-.91-2.42,2.73-.61c.2-.93-.92-.7-1.24-1.11-.66-.85-.86-2.72.23-3.38,1.81-1.08,4.68.48,2.21-3.09,4.39-.23,1.29-1.48,1.06-3.32-.15-1.19,1.28-2.09,2.28-2.31.8-.18,2.98.48,1.35-1.64-.38-.49-1-.42-1.06-.91,5.49.64.43-2.47,1.81-4.64.79-1.24,5.76.21,2.43-3.24.56,0,2.6-.25,2.73-.77-.64-1.08-1.59-1.36-1.67-2.85-.13-2.42,3.28-1.62,3.8-1.98,1.25-.87-1.31-2.26-.91-2.59.93.02,2.03-.04,2.72-.76-.66-.53-1.55-2.13-1.46-2.96.21-1.82,1.31-1.21,1.72-1.48.14-.09,1.45-3.17,1.72-1.47,1.06-.42,1-2.98.49-3.72-.2-.29-.67-.33-.79-.52-.55-.85,1.56-3.48,1.83-4.54.22-.87.33-7.61.09-8.29-.34-.98-3.29-1.17-3.25-2.13.02-.6.74-.77.96-1.19.4-.76,2.14-5.17,2.39-5.32.46-.29,2.55.1,3.29-.05v45.45c-.78.23-1.67,1.52-2.58,1.52h-9.4s-.45.42-.45.45v23.18c-3.64-.74-2.95,1.97-2.42,4.55h-9.55c-2.53,0-3.69,4.52-4.61,6.28-6.15,11.68-12.21,23.78-18.05,35.61-1.6,3.24-3.08,6.59-4.47,9.92l-4.54-2.12ZM243.07,230.76l3.41-7.17,3.87-1.31-1.21-2.42c4.89.4.89-2.85,1.27-4.63.32-1.49,3.18-4.01,3.28-5.98l25.38,11.14c2.33.54,4.62,2,7.05,1.29l-.31.6,2.43-.3-.15.61,10.45-.61c.03.62-.8-.04-.61.75.09.36.67-.18.61.61l-13.04,25.91-42.43-18.49ZM226.56,128.64l-40.09-17.81c-3.21-2.27.24-3.13,2.64-2.79-1.69,4.51,4.91,3.87,2.73,0h43.04c-1.63,4.35,4.54,4.08,3.03,0h7.88v12.42c.3-.1.66.3.76.3h6.37s.45-.42.45-.45v-12.27c.52.18,1.52.4,1.52,1.06v23.18s-.06-.02-.09-.03c.15.82.12,1.67-.09,2.47.3.06-.05.55.61.61,6.15.62,13.39-.51,19.66-.03.07.02.13.1.2.21.19-.02.38-.03.58-.03.22,0,.44.01.65.04.17-.02.35-.04.53-.04.21,0,.4.02.6.04.33-.02.66-.02.99,0,.07-.11.14-.21.21-.23.38-.09,6.26-.11,6.58-.01.09.03.14.11.17.21.2-.03.4-.05.62-.06v-.13h21.07c.05,0,.48.41.45.61h-4.21c.54.22,1,.53,1.38.91h2.53v.3s-.61,0-.61,0v5.15h.61s0,.3,0,.3h-1.17c0,.17-.02.35-.03.52.03.13.07.26.09.39h1.11c.13.5-.53.14-.61.5-.51,2.1.87,4.71-.6,6.77l-.19-.13c-.04.2-.1.4-.17.6,0,0,.01.02.01.02.06.32-.67,1.78-1,1.84-.04,0-.09,0-.13,0-.25.29-.4.5-.48.62.07.03.12.06.14.08.5.6-.54.96-.69,1.28-.61,1.29-1.12,2.83-1.76,4.15-.37.26-5.24-2.17-6.03-2.55h0c-1.85-.68-3.53-1.69-5.34-2.47-2.36-1.01-4.76-1.88-7.08-2.98-.68.09-1.51-.77-2.49-.61-.67.11-.38.85-.96.72-7.14-3.29-14.29-6.62-21.52-9.72-.77-.33-5.04-2.26-5.33-2.05-.35.7-.61,1.85-.96,2.47-3.92,6.89-6.89,14.29-10.65,21.25-.8,1.49-1.18,1.61-2.83,1.13-7.16-2.07-15.21-7.55-22.47-9.96-2.12-.94-.22-3.81.52-5.29,1.96-3.91,4.51-8.19,6.44-12.12.31-.62.8-1.59,1.31-2.63,0-.01,0-.03.01-.04.27-.9.67-1.66,1.15-2.38.45-.99.82-1.89.96-2.44.08-.32.25-.6,0-.92ZM246.7,110.77v-.91h5.76v-.61h-5.76v-.3h5.76c.06,0-.23-1.1.3-.91v5.15h-6.06v-2.12h5.76v-.3h-5.76ZM252.76,113.5v2.73h-6.06v-2.73h6.06ZM252.76,116.53v3.64h-6.06v-3.64h6.06ZM309.44,149.1v-13.79h.61v13.94s-.43-.11-.59.22c-1.94,3.97-3.96,8.1-5.86,11.97-2.29,4.68-3.83,9.86-7.18,13.86l13.03-26.21ZM308.21,134.53v-23.28l1.84-.48v24.24l-1.84-.48ZM279.4,179.66c-.64-.1-1.27-.32-1.84-.62-.13-.07-.22-.16-.34-.24-.11.08-.21.13-.31.12-2.2-.85-4.32-2.06-6.57-2.69l2.42-1.81-2.42.76,11.22-22.88.49,2.12c.19-.07.39-.14.59-.19-.04-.3-.1-.6-.14-.9-.04-.33-.19-1.3.12-1.33l18.94,8.19-2.25,1.12c.04.14.06.27.09.41,1.16-.44,2.33-.87,1.55-.03-.06.07-.5-.12-.54.15-.17,1.02-1.15,4.04-1.85,4.82-.19.21-.44.21-.63.2-.05.14-.13.27-.19.4.04.18.06.42-.03.7-.27.85-1.56,3.47-2.04,4.36-1.64,3.04-3.78,5.36-6.95,6.69-.36.21-.75.36-1.19.47-.31.33-1.65.7-1.88.7h-4.7s.04-.09.06-.13c-.6-.04-1.14-.17-1.61-.37ZM280.26,152.37c.11-.17.99-1.3,1.3-.99.05.05-.49,1.08-.62,1.28-2.29,3.69-4.49,8.5-6.44,12.43-1.65,3.33-3.17,6.75-4.68,10.15l-.99.37,2.38-4.43c3.25-5.63,5.68-13.45,9.05-18.81ZM282.1,218.25c15.64,4.89,32.36-1.18,40.08-15.67.75.3-.45,2.22-.71,2.63-7.45,11.24-21.79,17.37-35.11,14.55-11.46-2.9-21.81-8.94-32.68-13.39.01-.35.97-.09,1.22,0,8.94,2.94,18.1,9.04,27.21,11.89ZM328.24,264.09l-.6-.31c.07.54.05,1.02-.61.92l.91.6-1.83-.14-27.57-12.28c.04-.14.09-.29.14-.43-.21-.05-.41-.11-.6-.18-.14.2-.26.32-.32.32-2.67-2.16-6.37-2.11-8.84-4.4l.78-1.88c1.16-2.79,2.81-5.34,4.15-7.98l35.61,15.6c1.35,1.51-2.24,8.06-1.22,10.16ZM344,203.49l-.6-.3c-.43,1.02-.3,1.72-.01,2.73l-.6-.31.3,1.52-.6-.31c-.29,2.93-2.08,5.89-1.52,8.79l-.6-.31c-.44,1.77-.72,3.8-1.24,5.52-.07.23-.46.24-.55.48-.36,1-.24,1.78-.03,2.79l-.6-.31c-1.64,6.24-2.88,12.64-4.57,18.86-.07.26-.51.23-.63.65-.64,2.32-.88,4.75-1.79,6.99l.63.47-1.21.17-17.88-7.75c0-.47.54-.28.85-.8.64-1.08,1-2.81,1.84-3.89-.02-.2-1.78-1.15-2.09-1.23-1.92-.47-2.37,4.42-3.48,4.44l-14.06-6.12c-.4-.63,1.93-5.15,2.39-6.1.1-.19.5-.22.68-.6.66-1.34,2.85-6.98,3.55-7.65.22-.21,3.88-1.25,4.75-1.62,11.13-4.68,15.66-12.05,20.79-22.25,1.42-2.81,2.81-5.77,3.86-8.71l11.96,5.47c1.17,1.38-.1,6.27.77,8.17l-.6-.31.3,1.52ZM346.42,34.11c.08.22-.3.36-.3.45v4.23c.06.32.1.67.1,1.03v7.31h.21v12.73h-.21v.61h.21v12.42h-16.37v.61h16.37v3.94h-16.22c-.09,0-.23.38-.45.3v-4.85h-3.64v5.15h20.31l-.3,56.97h-35.46v-27.42c0-.73-2.25-.94-2.84-.77-.07.02-.38.63-.65,1.23.02.86.01,1.72.03,2.57.22.2.43.34.46.59l-.02,23.8h-12.58s-.45-.42-.45-.45v-.85c-.1-.02-.2-.04-.3-.06v1.37h-15.31c-.05,0-.1-.04-.15-.11-1.34.14-2.71.12-4.05-.05-.21.15-.53.22-1.11.16v-.34c-.11-.02-.22-.05-.33-.08-.07.1-.4.42-.43.42h-17.43v-25.91c0-2.44-6.25-1.04-7.74-1.35-19.55.35-40.58-1.54-60.01-.33-1.2.07-2.89.26-3.12,1.75-.3,1.95,2.34,1.65,2.08,3.11h.3c-.3-.96,1.08-.3,1.73-.06,3.79,1.44,8.1,3.61,11.52,5.13,4.58,2.04,9.06,4.33,13.73,6.14l-.6,1.81c.67-.17.41-1.56,1.31-1.48l11.29,5.11-11.34,24.32c.26.82.84,1.37,1.56,1.8,4.48,2.64,12.54,5.73,17.59,7.87,1.94.82,5.81,3.13,7.49,1.62,1.79-2.9,2.92-6.14,4.45-9.17,2.02-4.01,4.36-8.35,6.54-12.28.23-.42,1-2.86,1.13-2.95l11.98,5.14-2.28,4.85c.81.17.52-.2.75-.6.45-.77,1.65-3.98,2.37-3.91l13.85,6.03-26.68,54.54c-.08.06-.35-.04-.7-.19-.05.14-.1.27-.16.4.13.09.22.18.24.26-.1.58-.41,1.05-.71,1.53-.06.1-.39.16-.57.5-.43.78-2.54,5.07-2.59,5.58-.02.27,2.28,4.79,2.07,4.94l-3.64-.3c.83,1.09,1.98,1.6,2.42,3.02-.94.35-4.79,1.05-5.31,1.5-1,.85-2.35,5.01-2.88,6.38l-2.12-.61.71-1.48c-.25.06-.52.11-.8.14-.09.24-.16.49-.24.72-.56.4-10.05-4.48-11.62-4.79v-.05c-.21-.09-.41-.19-.59-.31-.07.03-.16.04-.31,0l-33.69-15.12v-.19c-.78-.16-1.43-.49-1.96-.92.01.21.02.25-.44.19l-26.84-11.81.03-.11c-.16-.07-.31-.14-.46-.23h-.01s-26.23-11.48-26.23-11.48l.48-1.28c-.09-.03-.17-.05-.25-.08-.19.52-.4,1.02-.85.95-3.71-1.64-7.41-3.31-11.12-4.95-.74-.33-1.49-.61-2.36-.99-5.94-2.63-11.92-5.26-17.83-7.99-2.24-.64-4.39-1.54-6.15-2.9-.33-.16-.66-.31-.99-.47.04-.09.09-.18.13-.27-.06-.06-.11-.12-.17-.18l-.3.59c-1.37-1.04-3.08-1.11-4.53-1.67-1.03-.4-5.67-2.32-6.86-2.99-.7-.14-1.31-.42-1.81-.8-.86-.15-1.58-.5-2.15-.98l-23.45-10.53.09-.26c-.15-.07-.3-.15-.45-.22l-.1.18-11.67-5.15.08-.2c-.15-.07-.31-.15-.46-.23l-.07.13-31.07-13.94,9.92-20.52c4.15-7.91,8.18-16.16,12.29-24.1.9-1.74,2.39-6.89,4.61-6.89h12.73c1.04,0,.16-5.11.14-5.9-.2-7.42.17-14.87.01-22.29h17.28v27.27s-.64-.15-.61.15c.5-.06.56.76.61.76h24.85l-.45-.61h-24.1s0-3.94,0-3.94h24.55v-.61h-24.55v-16.67h.39v-.56c-.09.1-.21.32-.39.25v-16.97h29.4c-.17-.72-.66-.42-1.21-.3v-4.85h-3.33v4.85h-24.85v-4.24h24.55v-.61h-24.1c-.09,0-.23.38-.45.3v-16.06h.56c0-.1,0-.2,0-.3h-.57V2.29h90.93v.61c.1-.01.2-.03.3-.03v-.57h25.21c.9-.28,1.91-.25,2.88.02.26-.04.53-.06.82-.06.23,0,.45.02.67.04h61.66v.4c.2.02.41.04.61.08v-.48h90.32c-.1.3.3.66.3.76v12.57h-.09c0,.08.03.17.03.25,0,.02,0,.03,0,.05h.07v13.03h-16.06v.61h16.37c-.63.69.09,4.24-.76,4.24h-15.61v.3h16.37ZM347.03,153.8h-.3v-46.36h.3v46.36Z" fill="#aaa"/><path d="M188.81,28.96v4.85h-25.16v-4.24h24.85l-.45-.61h-24.41v-.37h-.3v.37h-16.67v.61h16.67v4.24h-16.67v.3h16.67v.07h.3v-.07h28.49v-4.55c.6,0,1.08.23.91-.61h-4.24Z" fill="#aaa"/><path d="M283.98,73.2l.48.16c.02-.16.05-.31.09-.46h-29.06v-.83c-.2,0-.4,0-.61-.02v.85h-20.1c.13.71.08,1.5-.21,2.36v2.49c-.33.11-.67-.3-.76-.3h0c-.06.2-.12.4-.17.61h46.4c.02-.2-.4-.61-.45-.61h-40.92c-.07,0-.18.24-.3.23-.83-.07-.32-3.38-.45-4.17h42.43c.33,1.04-.35,3.37-.23,4.1.02.13.33.44.38.44h3.92c.01-.15.03-.29.05-.43-.14,0-.31.04-.48.13v-4.55Z" fill="#aaa"/><path d="M284.45,33.78c-.23,0-.47.05-.47.02v-4.24s.01,0,.02,0c0-.16,0-.32,0-.48-.71-.1-1.57-.13-1.67-.13-8.38-.27-17.08-.21-25.48,0-.52.01-.89.1-1.35.32v-1.11c-.2.05-.4.09-.61.11v1l-20.31-.3v4.85h-1.89c.02.1.02.2.04.3h22.16v.4s.09,0,.14,0c.16,0,.32.01.47.02v-.42h29.01c-.02-.11-.03-.22-.05-.32ZM254.89,33.81h-16.52c-.76,0-.36-3.59-.45-4.24h16.97v4.24ZM279.89,33.81h-24.4v-4.24h24.85c-.09.65.31,4.24-.45,4.24Z" fill="#aaa"/><line x1="212.3" y1="219.85" x2="210.64" y2="218.94" fill="#aaa"/><path d="M172.97,108.42c1.01,1.09-1.32,4.92-1.96,6.2-2,4-4.16,8.6-6.44,12.43-1.14,1.91-1.28,4.05-4.26,3.27-2.06-.54-13.2-5.58-15.05-6.77-1.05-.68-1.86-1.45-1.48-2.79.6-2.14,2.69-5.59,3.8-7.5,2.24-3.85,2.34-5.19,7.43-5.54,4.1-.28,12.11-.43,16.08,0,.47.05,1.6.38,1.88.69ZM170.81,113.69c.72-1.41,3.22-4.79.81-5.28-5.49.19-11.49-.49-16.92-.08-5.6.42-4.85,2.35-7.03,6.3-.21.38-.59.42-.68.6-.64,1.24-2.89,5.45-2.69,6.52.25,1.32,4.02,2.59,5.32,3.19,2.71,1.24,8.01,4.07,10.68,4.77,3.05.8,3.09-1.75,4.26-3.88,2.12-3.83,4.24-8.22,6.24-12.15Z" fill="#aaa"/><path d="M192.14,72.89v5.15h-45.47v-.61h41.68c.09,0,.23.38.45.3v-4.85h3.33Z" fill="#aaa"/><rect x="326.12" y="28.96" width="3.64" height="5.15" fill="#aaa"/><rect x="143.04" y="72.89" width="3.33" height="5.15" fill="#aaa"/><rect x="143.04" y="28.96" width="3.33" height="5.15" fill="#aaa"/><rect x="97.27" y="72.89" width="3.33" height="5.15" fill="#aaa"/><path d="M181.88,82.62c.43.16.81.38,1.14.64.72.22,1.39.64,1.89,1.2.28.03.54.08.79.15-.73-1.24-2.09-2.13-3.82-1.99Z" fill="#aaa"/><path d="M144.76,107.51c2.16-.06,2.47,3.73-.05,3.73s-2.4-3.66.05-3.73Z" fill="#aaa"/><path d="M219.34,118.6c-.1.12-.57-.08-.52.2l1.2.91c-1.11,1.23-1.81,2.37-1.81,4.09-1.6.02-1.23-.66-1.59-1.11-.73-.92-.93.22-1.01.22-.09,0-.99-.3-1.02-.35-.51-.75.6-1,.84-1.37.61-.95.82-3.05.96-3.15.06-.04.85.52,1.44.23,1-.48,1.8-3.32,2.65-4.17.33,1.18-.75,2.29-1.17,3.41-.16.42.09,1,.02,1.09Z" fill="#aaa"/><path d="M231.85,154.41c-.3.65-1.93,4.68-2.14,4.84s-2.82-.77-3.19-1.2c-.23-.36,1.52-4.33,1.9-4.58.87-.58,2.47.87,3.43.94Z" fill="#aaa"/><path d="M214.27,111.38c-.45,1.17-1.09,2.28-1.59,3.42-.27.62.57,1.5-.53.81-.23.93.51.48.89.77,1.04.8-.28,1.15-.65,1.74-.52.83-.6,2.25-.67,2.35-.73.93-1.92-.01-1.98-1.08-.05-.9.96-1.34.15-1.94-.63.35-.45,1.92-.59,2.12-.31.45-1.32.07-1.37,0-.19-.25,1.77-2.07,1.69-2.73l-.04-1.21,1.38.16c.05.37-1.23,1.45-.31,1.66l1.21-1.97-.9-.45c.37-.06.97.24,1.23-.2.11-.19,1.33-4.21,2.11-3.44Z" fill="#aaa"/><path d="M227.3,117.13c.19.23-1.26,2.67-1.4,3.33-.22,1.01.8,1.36-.72,1.22-.06.53.77.39,1.03.58.84.61-.52,1.12-.72,1.47-.51.9-.46,4.02-1.85,2.63-.21-.21-.02-.5-.11-.67-.04-.07-.47-.08-.49-.26-.09-.64.86-1.67.62-1.94-.75-.86-1.42,2.41-1.66,2.41-.37.01-1.28-.58-.76-1.29.26-.35,1.66-1.61,1.8-1.96.15-.37-.19-1.41.46-1.52.2-.04.58.35,1,.17.5-.21,1.66-2.94,2.04-3.58.1-.17.28-1.16.75-.6Z" fill="#aaa"/><path d="M241.79,110.25c.14.09-.06.56.21.52.86-.91,3.16-1.14,3.21.45.06,1.78-.65,1.94-2.29,1.66-.55-.09-.7-.5-.92-.6-.25-.11-.03.52-.34.61-2.45.65-3.25-.38-2.84-2.73.73.14,2.45-.25,2.97.09Z" fill="#aaa"/><path d="M207.6,108.35c.34.41-2.14,3.69-1.21,4.54h-1.21c-.24,1.07.94.22,1.52.61.52.78-1.35,1.98-1.52,2.33-.29.59-.2,2.4-1.05,2.21-.59-.13-.47-.9-.59-1.14-.04-.08-.49-.07-.49-.24,0-.45.51-.85.57-1.27.1-.65-.43-1.48-.25-2.21l.75.9c.22-.38.47-.75.59-1.18.36-1.23,1.35-2.61,2.15-3.97.1-.17.28-1.16.75-.6Z" fill="#aaa"/><path d="M334.29,199.87c.14,1.32-.96,2.15-1.5,2.94-.3.44-.53,1.53-.91,1.77-.61.38-2.18-1.12-3.04-1.09-.16-.21,2-4.51,2.42-4.71.35-.17,2.33,1.18,3.03,1.09Z" fill="#aaa"/><path d="M63.02,38.65v5c0,.67-3.64.67-3.64,0v-5h3.64Z" fill="#aaa"/><path d="M161.23,121.07c2.56,3.55-1.41,1.83-2.66,3.1s.13,4.28-4.05,2.23c-.54-.27-.58-.7-.95-.87-.71-.32-4.95-1.68-5.07-2.21,1.37-2.96,2.6-6.29,4.15-9.14.2-.36.56-.4.68-.61.35-.59,1.21-2.97,1.7-3.09,1.17.7,7.7,2.93,8.18,3.6.57.8-1.03,2.62-1.05,3.49-.05,1.81,2.99,3.23-.94,3.49ZM156.07,112.29c-.07-.05-.65-.12-.62.18-.07,1.16-3.69,6.2-3.19,6.8.33.39,1.36.16,1.39,1.03.03.67-1.76,2.27-1.82,3.19l4.68,1.83c1.19-2.93,3.34-5.41,4.35-8.41,1.22-3.66-2.17-2.53-4.57-4.02-.27-.16-.19-.58-.21-.6Z" fill="#aaa"/><g id="line1"><rect id="pid-1" x="73.12" y="3" width="29.57" height="14.14"/><rect id="pid-2" x="73.12" y="18.46" width="29.57" height="14.14"/><rect id="pid-3" x="73.12" y="40.36" width="29.57" height="14.14"/><rect id="pid-4" x="73.12" y="58.16" width="29.57" height="14.14"/></g><g id="line2"><rect id="pid-5" x="132.89" y="3" width="29.57" height="12.08"/><rect id="pid-6" x="132.89" y="16.69" width="29.57" height="11.46"/><rect id="pid-7" x="132.59" y="35.21" width="29.57" height="11.05"/><rect id="pid-8" x="132.59" y="48.01" width="29.57" height="11.43"/><rect id="pid-9" x="132.59" y="60.87" width="29.57" height="11.43"/></g><g id="line3"><rect id="pid-10" x="165.15" y="2.79" width="29.57" height="12.08"/><rect id="pid-11" x="165.15" y="16.48" width="29.57" height="11.46"/><rect id="pid-12" x="164.85" y="35" width="29.57" height="11.05"/><rect id="pid-13" x="164.85" y="47.8" width="29.57" height="11.43"/><rect id="pid-14" x="164.85" y="60.67" width="29.57" height="11.43"/></g><g id="line4"><rect id="pid-15" x="223.1" y="3.04" width="29.57" height="12.08"/><rect id="pid-16" x="223.1" y="16.73" width="29.57" height="11.46"/><rect id="pid-17" x="222.8" y="35.25" width="29.57" height="11.05"/><rect id="pid-18" x="222.8" y="48.05" width="29.57" height="11.43"/><rect id="pid-19" x="222.8" y="60.92" width="29.57" height="11.43"/></g><g id="line5"><rect id="pid-20" x="257" y="3.04" width="29.57" height="12.08"/><rect id="pid-21" x="257" y="16.73" width="29.57" height="11.46"/><rect id="pid-22" x="256.69" y="35.25" width="29.57" height="11.05"/><rect id="pid-23" x="256.69" y="48.05" width="29.57" height="11.43"/><rect id="pid-24" x="256.69" y="60.92" width="29.57" height="11.43"/></g><g id="line6"><rect id="pid-25" x="315.27" y="3.04" width="29.57" height="12.08"/><rect id="pid-26" x="315.27" y="16.73" width="29.57" height="11.46"/><rect id="pid-27" x="314.97" y="35.25" width="29.57" height="11.05"/><rect id="pid-28" x="314.97" y="48.05" width="29.57" height="11.43"/><rect id="pid-29" x="314.97" y="60.92" width="29.57" height="11.43"/></g><g id="line7"><rect id="mid-48" x="248.11" y="117.37" width="25.81" height="8.5" transform="translate(382.63 -139.4) rotate(90)"/><rect id="mid-49" x="257.88" y="117.37" width="25.81" height="8.5" transform="translate(392.4 -149.17) rotate(90)"/><rect id="mid-50" x="268.13" y="117.37" width="25.81" height="8.5" transform="translate(402.65 -159.42) rotate(90)"/><rect id="mid-51" x="278.38" y="117.37" width="25.81" height="8.5" transform="translate(412.9 -169.67) rotate(90)"/><rect id="mid-52" x="288.7" y="117.37" width="25.81" height="8.5" transform="translate(423.22 -179.99) rotate(90)"/><rect id="mid-53" x="160.48" y="116.87" width="25.81" height="8.14" transform="translate(355.02 12.77) rotate(114.33)"/><rect id="mid-54" x="168.58" y="120.51" width="25.81" height="8.14" transform="translate(369.77 10.53) rotate(114.33)"/><rect id="mid-55" x="177" y="124.34" width="25.81" height="8.14" transform="translate(385.14 8.26) rotate(114.33)"/><rect id="mid-56" x="185.5" y="128.18" width="25.81" height="8.14" transform="translate(400.65 5.94) rotate(114.33)"/><rect id="mid-57" x="194.16" y="132.09" width="25.81" height="8.14" transform="translate(416.43 3.58) rotate(114.33)"/><rect id="mid-58" x="202.54" y="135.81" width="25.81" height="8.14" transform="translate(431.66 1.18) rotate(114.33)"/><rect id="mid-59" x="238.78" y="152.17" width="25.81" height="8.14" transform="translate(502.12 -1.99) rotate(115.88)"/><rect id="mid-60" x="247.32" y="156.32" width="25.81" height="8.14" transform="translate(518.13 -3.72) rotate(115.88)"/><rect id="mid-61" x="255.6" y="160.26" width="25.81" height="8.14" transform="translate(533.57 -5.51) rotate(115.88)"/></g><g id="line8"><rect id="pid-30" x="13.47" y="112.39" width="29.57" height="11.43" transform="translate(-90.46 92.55) rotate(-64.4)"/><rect id="pid-31" x="25.52" y="117.62" width="29.57" height="11.43" transform="translate(-88.34 106.38) rotate(-64.4)"/><rect id="pid-32" x="37.51" y="123.37" width="29.57" height="11.43" transform="translate(-86.71 120.46) rotate(-64.4)"/><rect id="pid-33" x="49.25" y="128.99" width="29.57" height="11.43" transform="translate(-85.12 134.24) rotate(-64.4)"/><rect id="pid-34" x="61.29" y="134.22" width="29.57" height="11.43" transform="translate(-83 148.07) rotate(-64.4)"/><rect id="pid-35" x="73.29" y="139.97" width="29.57" height="11.43" transform="translate(-81.37 162.15) rotate(-64.4)"/><rect id="pid-36" x="85.62" y="145.28" width="29.57" height="11.43" transform="translate(-78.55 180.29) rotate(-65.67)"/><rect id="pid-37" x="97.78" y="150.25" width="29.57" height="11.43" transform="translate(-75.92 194.28) rotate(-65.67)"/><rect id="pid-38" x="109.9" y="155.73" width="29.57" height="11.43" transform="translate(-73.79 208.55) rotate(-65.67)"/><rect id="pid-39" x="121.75" y="161.09" width="29.57" height="11.43" transform="translate(-71.7 222.5) rotate(-65.67)"/><rect id="pid-40" x="133.91" y="166.05" width="29.57" height="11.43" transform="translate(-69.07 236.5) rotate(-65.67)"/><rect id="pid-41" x="146.03" y="171.53" width="29.57" height="11.43" transform="translate(-66.94 250.77) rotate(-65.67)"/><rect id="pid-42" x="158.41" y="176.91" width="29.57" height="11.43" transform="translate(-64.56 265.21) rotate(-65.67)"/><rect id="pid-43" x="170.54" y="182.39" width="29.57" height="11.43" transform="translate(-62.43 279.48) rotate(-65.67)"/><rect id="pid-44" x="182.39" y="187.75" width="29.57" height="11.43" transform="translate(-60.34 293.44) rotate(-65.67)"/><rect id="pid-45" x="194.35" y="193.16" width="29.57" height="11.43" transform="translate(-58.23 307.51) rotate(-65.67)"/><rect id="pid-46" x="205.85" y="198.2" width="29.57" height="11.43" transform="translate(-56.06 320.95) rotate(-65.67)"/><rect id="pid-47" x="217.38" y="203.57" width="29.57" height="11.43" transform="translate(-54.18 334.62) rotate(-65.67)"/></g></g></svg>