<?xml version="1.0" encoding="UTF-8"?><svg id="Capa_2" xmlns="http://www.w3.org/2000/svg" viewBox="0 0 453.16 299.29"><g id="layout1"><rect id="away-initial" y="137.57" width="453.16" height="26.36" fill="#c7c7c7"/><rect id="away-initial-2" x="26.95" y="272.93" width="403.87" height="26.36" fill="#c7c7c7"/><rect id="away-initial-3" x="-109.52" y="136.46" width="299.29" height="26.36" transform="translate(-109.52 189.77) rotate(-90)" fill="#c7c7c7"/><rect id="away-initial-4" x="268" y="136.46" width="299.29" height="26.36" transform="translate(268 567.29) rotate(-90)" fill="#c7c7c7"/><rect id="away-initial-5" x="26.95" width="403.87" height="26.36" fill="#c7c7c7"/><g id="line4"><rect id="pid-22" x="61.29" y="221.79" width="29.57" height="43.71"/><rect id="pid-24" x="95.14" y="221.79" width="29.57" height="43.71"/><rect id="pid-26" x="129.75" y="221.79" width="29.57" height="43.71"/><rect id="pid-28" x="163.18" y="221.79" width="29.57" height="43.71"/><rect id="pid-30" x="197.57" y="221.79" width="29.57" height="43.71"/><rect id="pid-32" x="231.32" y="221.79" width="29.57" height="43.71"/><rect id="pid-34" x="265.39" y="221.79" width="29.57" height="43.71"/><rect id="pid-36" x="299.14" y="221.79" width="29.57" height="43.71"/><rect id="pid-38" x="333.54" y="221.79" width="29.57" height="43.71"/><rect id="pid-40" x="367.29" y="221.79" width="29.57" height="43.71"/></g><g id="line3"><rect id="pid-21" x="61.29" y="172.77" width="29.57" height="43.71"/><rect id="pid-23" x="95.14" y="172.77" width="29.57" height="43.71"/><rect id="pid-25" x="129.75" y="172.77" width="29.57" height="43.71"/><rect id="pid-27" x="163.18" y="172.77" width="29.57" height="43.71"/><rect id="pid-29" x="197.57" y="172.77" width="29.57" height="43.71"/><rect id="pid-31" x="231.32" y="172.77" width="29.57" height="43.71"/><rect id="pid-33" x="265.39" y="172.77" width="29.57" height="43.71"/><rect id="pid-35" x="299.14" y="172.77" width="29.57" height="43.71"/><rect id="pid-37" x="333.54" y="172.77" width="29.57" height="43.71"/><rect id="pid-39" x="367.29" y="172.77" width="29.57" height="43.71"/></g><g id="line2"><rect id="pid-2" x="61.29" y="85.02" width="29.57" height="43.71"/><rect id="pid-4" x="95.14" y="85.02" width="29.57" height="43.71"/><rect id="pid-6" x="129.75" y="85.02" width="29.57" height="43.71"/><rect id="pid-8" x="163.18" y="85.02" width="29.57" height="43.71"/><rect id="pid-10" x="197.57" y="85.02" width="29.57" height="43.71"/><rect id="pid-12" x="231.32" y="85.02" width="29.57" height="43.71"/><rect id="pid-14" x="265.39" y="85.02" width="29.57" height="43.71"/><rect id="pid-16" x="299.14" y="85.02" width="29.57" height="43.71"/><rect id="pid-18" x="333.54" y="85.02" width="29.57" height="43.71"/><rect id="pid-20" x="367.29" y="85.02" width="29.57" height="43.71"/></g><g id="line1"><rect id="pid-1" x="61.18" y="36" width="29.57" height="43.71"/><rect id="pid-3" x="95.04" y="36" width="29.57" height="43.71"/><rect id="pid-5" x="129.64" y="36" width="29.57" height="43.71"/><rect id="pid-7" x="163.07" y="36" width="29.57" height="43.71"/><rect id="pid-9" x="197.46" y="36" width="29.57" height="43.71"/><rect id="pid-11" x="231.21" y="36" width="29.57" height="43.71"/><rect id="pid-13" x="265.29" y="36" width="29.57" height="43.71"/><rect id="pid-15" x="299.04" y="36" width="29.57" height="43.71"/><rect id="pid-17" x="333.43" y="36" width="29.57" height="43.71"/><rect id="pid-19" x="367.18" y="36" width="29.57" height="43.71"/></g><text transform="translate(449.89 160) rotate(-90)" font-family="MyriadPro-Regular, &apos;Myriad Pro&apos;" font-size="7.53"><tspan x="0" y="0" letter-spacing="0em">S</tspan><tspan x="3.73" y="0">alida</tspan></text><text transform="translate(8.61 162.79) rotate(-90)" font-family="MyriadPro-Regular, &apos;Myriad Pro&apos;" font-size="7.53"><tspan x="0" y="0">E</tspan><tspan x="3.71" y="0" letter-spacing="0em">n</tspan><tspan x="7.86" y="0" letter-spacing="0em">t</tspan><tspan x="10.35" y="0" letter-spacing="0em">r</tspan><tspan x="12.78" y="0">ada</tspan></text></g></svg>